<?xml version="1.0" encoding="UTF-8" standalone="no"?>
<!-- Created with Inkscape (http://www.inkscape.org/) -->

<svg
   width="93mm"
   height="78.365997mm"
   viewBox="0 0 93 78.36599"
   version="1.1"
   id="svg1"
   sodipodi:docname="logo no text.svg"
   inkscape:version="1.3.2 (091e20e, 2023-11-25, custom)"
   inkscape:export-filename="logo no text.png"
   inkscape:export-xdpi="96"
   inkscape:export-ydpi="96"
   xmlns:inkscape="http://www.inkscape.org/namespaces/inkscape"
   xmlns:sodipodi="http://sodipodi.sourceforge.net/DTD/sodipodi-0.dtd"
   xmlns:xlink="http://www.w3.org/1999/xlink"
   xmlns="http://www.w3.org/2000/svg"
   xmlns:svg="http://www.w3.org/2000/svg">
  <sodipodi:namedview
     id="namedview1"
     pagecolor="#ffffff"
     bordercolor="#999999"
     borderopacity="1"
     inkscape:showpageshadow="2"
     inkscape:pageopacity="0"
     inkscape:pagecheckerboard="0"
     inkscape:deskcolor="#d1d1d1"
     inkscape:document-units="mm"
     showguides="true"
     inkscape:zoom="1"
     inkscape:rotation="-90"
     inkscape:cx="174.5"
     inkscape:cy="133"
     inkscape:window-width="1366"
     inkscape:window-height="705"
     inkscape:window-x="-8"
     inkscape:window-y="-8"
     inkscape:window-maximized="1"
     inkscape:current-layer="layer1"
     showgrid="false"
     inkscape:export-bgcolor="#ffffff00">
    <inkscape:grid
       id="grid294"
       units="mm"
       originx="0"
       originy="0"
       spacingx="0.99999998"
       spacingy="1"
       empcolor="#0099e5"
       empopacity="0.30196078"
       color="#0099e5"
       opacity="0.14901961"
       empspacing="5"
       dotted="false"
       gridanglex="30"
       gridanglez="30"
       visible="false" />
  </sodipodi:namedview>
  <defs
     id="defs1">
    <rect
       x="312.50284"
       y="569.92804"
       width="124.41244"
       height="487.90366"
       id="rect2" />
    <rect
       x="464.1882"
       y="527.80334"
       width="172.09698"
       height="122.19654"
       id="rect1558" />
    <inkscape:path-effect
       effect="lattice2"
       gridpoint0="140.59,135.0013"
       gridpoint1="143.96351,135.0013"
       gridpoint2="140.59231,138.2802"
       gridpoint3="143.96351,138.2802"
       gridpoint4="141.43511,135.0013"
       gridpoint5="143.12071,135.0013"
       gridpoint6="141.43511,138.2802"
       gridpoint7="143.12071,138.2802"
       gridpoint8x9="142.27791,135.0013"
       gridpoint10x11="142.27791,138.2802"
       gridpoint12="140.59231,135.82102"
       gridpoint13="143.96351,135.82102"
       gridpoint14="140.59231,137.46047"
       gridpoint15="143.96351,137.46047"
       gridpoint16="141.43511,135.82102"
       gridpoint17="143.12071,135.82102"
       gridpoint18="141.43511,137.46047"
       gridpoint19="143.12071,137.46047"
       gridpoint20x21="142.27791,135.82102"
       gridpoint22x23="142.27791,137.46047"
       gridpoint24x26="140.59231,136.64075"
       gridpoint25x27="143.96351,136.64075"
       gridpoint28x30="141.43511,136.64075"
       gridpoint29x31="143.12071,136.64075"
       gridpoint32x33x34x35="142.27791,136.64075"
       id="path-effect285"
       is_visible="true"
       lpeversion="1"
       horizontal_mirror="false"
       vertical_mirror="false"
       perimetral="true"
       live_update="true" />
    <linearGradient
       id="linearGradient284"
       inkscape:collect="always">
      <stop
         style="stop-color:#ffffff;stop-opacity:0;"
         offset="0.75012463"
         id="stop285" />
      <stop
         style="stop-color:#000000;stop-opacity:1;"
         offset="1"
         id="stop284" />
    </linearGradient>
    <radialGradient
       inkscape:collect="always"
       xlink:href="#linearGradient284"
       id="radialGradient285"
       cx="139.87589"
       cy="139.46051"
       fx="139.87589"
       fy="139.46051"
       r="1.7693707"
       gradientTransform="matrix(1,0,0,0.97391474,2.4020226,0.81809821)"
       gradientUnits="userSpaceOnUse"
       spreadMethod="reflect" />
    <radialGradient
       inkscape:collect="always"
       xlink:href="#linearGradient284"
       id="radialGradient285-5"
       cx="139.87589"
       cy="139.46051"
       fx="139.87589"
       fy="139.46051"
       r="1.7693707"
       gradientTransform="matrix(1,0,0,0.97391474,2.4020226,0.81809821)"
       gradientUnits="userSpaceOnUse"
       spreadMethod="reflect" />
    <inkscape:path-effect
       effect="lattice2"
       gridpoint0="140.59,135.0013"
       gridpoint1="143.96351,135.0013"
       gridpoint2="140.59231,138.2802"
       gridpoint3="143.96351,138.2802"
       gridpoint4="141.43511,135.0013"
       gridpoint5="143.12071,135.0013"
       gridpoint6="141.43511,138.2802"
       gridpoint7="143.12071,138.2802"
       gridpoint8x9="142.27791,135.0013"
       gridpoint10x11="142.27791,138.2802"
       gridpoint12="140.59231,135.82102"
       gridpoint13="143.96351,135.82102"
       gridpoint14="140.59231,137.46047"
       gridpoint15="143.96351,137.46047"
       gridpoint16="141.43511,135.82102"
       gridpoint17="143.12071,135.82102"
       gridpoint18="141.43511,137.46047"
       gridpoint19="143.12071,137.46047"
       gridpoint20x21="142.27791,135.82102"
       gridpoint22x23="142.27791,137.46047"
       gridpoint24x26="140.59231,136.64075"
       gridpoint25x27="143.96351,136.64075"
       gridpoint28x30="141.43511,136.64075"
       gridpoint29x31="143.12071,136.64075"
       gridpoint32x33x34x35="142.27791,136.64075"
       id="path-effect285-0"
       is_visible="true"
       lpeversion="1"
       horizontal_mirror="false"
       vertical_mirror="false"
       perimetral="true"
       live_update="true" />
    <radialGradient
       inkscape:collect="always"
       xlink:href="#linearGradient284"
       id="radialGradient285-5-2"
       cx="139.87589"
       cy="139.46051"
       fx="139.87589"
       fy="139.46051"
       r="1.7693707"
       gradientTransform="matrix(1,0,0,0.97391474,2.4020226,0.81809821)"
       gradientUnits="userSpaceOnUse"
       spreadMethod="reflect" />
    <inkscape:path-effect
       effect="lattice2"
       gridpoint0="140.59,135.0013"
       gridpoint1="143.96351,135.0013"
       gridpoint2="140.59231,138.2802"
       gridpoint3="143.96351,138.2802"
       gridpoint4="141.43511,135.0013"
       gridpoint5="143.12071,135.0013"
       gridpoint6="141.43511,138.2802"
       gridpoint7="143.12071,138.2802"
       gridpoint8x9="142.27791,135.0013"
       gridpoint10x11="142.27791,138.2802"
       gridpoint12="140.59231,135.82102"
       gridpoint13="143.96351,135.82102"
       gridpoint14="140.59231,137.46047"
       gridpoint15="143.96351,137.46047"
       gridpoint16="141.43511,135.82102"
       gridpoint17="143.12071,135.82102"
       gridpoint18="141.43511,137.46047"
       gridpoint19="143.12071,137.46047"
       gridpoint20x21="142.27791,135.82102"
       gridpoint22x23="142.27791,137.46047"
       gridpoint24x26="140.59231,136.64075"
       gridpoint25x27="143.96351,136.64075"
       gridpoint28x30="141.43511,136.64075"
       gridpoint29x31="143.12071,136.64075"
       gridpoint32x33x34x35="142.27791,136.64075"
       id="path-effect285-0-2"
       is_visible="true"
       lpeversion="1"
       horizontal_mirror="false"
       vertical_mirror="false"
       perimetral="true"
       live_update="true" />
    <radialGradient
       inkscape:collect="always"
       xlink:href="#linearGradient284"
       id="radialGradient285-5-0"
       cx="139.87589"
       cy="139.46051"
       fx="139.87589"
       fy="139.46051"
       r="1.7693707"
       gradientTransform="matrix(1,0,0,0.97391474,2.4020226,0.81809821)"
       gradientUnits="userSpaceOnUse"
       spreadMethod="reflect" />
    <inkscape:path-effect
       effect="lattice2"
       gridpoint0="140.59,135.0013"
       gridpoint1="143.96351,135.0013"
       gridpoint2="140.59231,138.2802"
       gridpoint3="143.96351,138.2802"
       gridpoint4="141.43511,135.0013"
       gridpoint5="143.12071,135.0013"
       gridpoint6="141.43511,138.2802"
       gridpoint7="143.12071,138.2802"
       gridpoint8x9="142.27791,135.0013"
       gridpoint10x11="142.27791,138.2802"
       gridpoint12="140.59231,135.82102"
       gridpoint13="143.96351,135.82102"
       gridpoint14="140.59231,137.46047"
       gridpoint15="143.96351,137.46047"
       gridpoint16="141.43511,135.82102"
       gridpoint17="143.12071,135.82102"
       gridpoint18="141.43511,137.46047"
       gridpoint19="143.12071,137.46047"
       gridpoint20x21="142.27791,135.82102"
       gridpoint22x23="142.27791,137.46047"
       gridpoint24x26="140.59231,136.64075"
       gridpoint25x27="143.96351,136.64075"
       gridpoint28x30="141.43511,136.64075"
       gridpoint29x31="143.12071,136.64075"
       gridpoint32x33x34x35="142.27791,136.64075"
       id="path-effect285-0-5"
       is_visible="true"
       lpeversion="1"
       horizontal_mirror="false"
       vertical_mirror="false"
       perimetral="true"
       live_update="true" />
    <radialGradient
       inkscape:collect="always"
       xlink:href="#linearGradient284"
       id="radialGradient285-5-3"
       cx="139.87589"
       cy="139.46051"
       fx="139.87589"
       fy="139.46051"
       r="1.7693707"
       gradientTransform="matrix(1,0,0,0.97391474,2.4020226,0.81809821)"
       gradientUnits="userSpaceOnUse"
       spreadMethod="reflect" />
    <inkscape:path-effect
       effect="lattice2"
       gridpoint0="140.59,135.0013"
       gridpoint1="143.96351,135.0013"
       gridpoint2="140.59231,138.2802"
       gridpoint3="143.96351,138.2802"
       gridpoint4="141.43511,135.0013"
       gridpoint5="143.12071,135.0013"
       gridpoint6="141.43511,138.2802"
       gridpoint7="143.12071,138.2802"
       gridpoint8x9="142.27791,135.0013"
       gridpoint10x11="142.27791,138.2802"
       gridpoint12="140.59231,135.82102"
       gridpoint13="143.96351,135.82102"
       gridpoint14="140.59231,137.46047"
       gridpoint15="143.96351,137.46047"
       gridpoint16="141.43511,135.82102"
       gridpoint17="143.12071,135.82102"
       gridpoint18="141.43511,137.46047"
       gridpoint19="143.12071,137.46047"
       gridpoint20x21="142.27791,135.82102"
       gridpoint22x23="142.27791,137.46047"
       gridpoint24x26="140.59231,136.64075"
       gridpoint25x27="143.96351,136.64075"
       gridpoint28x30="141.43511,136.64075"
       gridpoint29x31="143.12071,136.64075"
       gridpoint32x33x34x35="142.27791,136.64075"
       id="path-effect285-0-0"
       is_visible="true"
       lpeversion="1"
       horizontal_mirror="false"
       vertical_mirror="false"
       perimetral="true"
       live_update="true" />
    <radialGradient
       inkscape:collect="always"
       xlink:href="#linearGradient284"
       id="radialGradient285-5-04"
       cx="139.87589"
       cy="139.46051"
       fx="139.87589"
       fy="139.46051"
       r="1.7693707"
       gradientTransform="matrix(1,0,0,0.97391474,2.4020226,0.81809821)"
       gradientUnits="userSpaceOnUse"
       spreadMethod="reflect" />
    <inkscape:path-effect
       effect="lattice2"
       gridpoint0="140.59,135.0013"
       gridpoint1="143.96351,135.0013"
       gridpoint2="140.59231,138.2802"
       gridpoint3="143.96351,138.2802"
       gridpoint4="141.43511,135.0013"
       gridpoint5="143.12071,135.0013"
       gridpoint6="141.43511,138.2802"
       gridpoint7="143.12071,138.2802"
       gridpoint8x9="142.27791,135.0013"
       gridpoint10x11="142.27791,138.2802"
       gridpoint12="140.59231,135.82102"
       gridpoint13="143.96351,135.82102"
       gridpoint14="140.59231,137.46047"
       gridpoint15="143.96351,137.46047"
       gridpoint16="141.43511,135.82102"
       gridpoint17="143.12071,135.82102"
       gridpoint18="141.43511,137.46047"
       gridpoint19="143.12071,137.46047"
       gridpoint20x21="142.27791,135.82102"
       gridpoint22x23="142.27791,137.46047"
       gridpoint24x26="140.59231,136.64075"
       gridpoint25x27="143.96351,136.64075"
       gridpoint28x30="141.43511,136.64075"
       gridpoint29x31="143.12071,136.64075"
       gridpoint32x33x34x35="142.27791,136.64075"
       id="path-effect285-0-6"
       is_visible="true"
       lpeversion="1"
       horizontal_mirror="false"
       vertical_mirror="false"
       perimetral="true"
       live_update="true" />
    <radialGradient
       inkscape:collect="always"
       xlink:href="#linearGradient284"
       id="radialGradient285-5-2-0"
       cx="139.87589"
       cy="139.46051"
       fx="139.87589"
       fy="139.46051"
       r="1.7693707"
       gradientTransform="matrix(1,0,0,0.97391474,2.4020226,0.81809821)"
       gradientUnits="userSpaceOnUse"
       spreadMethod="reflect" />
    <inkscape:path-effect
       effect="lattice2"
       gridpoint0="140.59,135.0013"
       gridpoint1="143.96351,135.0013"
       gridpoint2="140.59231,138.2802"
       gridpoint3="143.96351,138.2802"
       gridpoint4="141.43511,135.0013"
       gridpoint5="143.12071,135.0013"
       gridpoint6="141.43511,138.2802"
       gridpoint7="143.12071,138.2802"
       gridpoint8x9="142.27791,135.0013"
       gridpoint10x11="142.27791,138.2802"
       gridpoint12="140.59231,135.82102"
       gridpoint13="143.96351,135.82102"
       gridpoint14="140.59231,137.46047"
       gridpoint15="143.96351,137.46047"
       gridpoint16="141.43511,135.82102"
       gridpoint17="143.12071,135.82102"
       gridpoint18="141.43511,137.46047"
       gridpoint19="143.12071,137.46047"
       gridpoint20x21="142.27791,135.82102"
       gridpoint22x23="142.27791,137.46047"
       gridpoint24x26="140.59231,136.64075"
       gridpoint25x27="143.96351,136.64075"
       gridpoint28x30="141.43511,136.64075"
       gridpoint29x31="143.12071,136.64075"
       gridpoint32x33x34x35="142.27791,136.64075"
       id="path-effect285-0-2-7"
       is_visible="true"
       lpeversion="1"
       horizontal_mirror="false"
       vertical_mirror="false"
       perimetral="true"
       live_update="true" />
    <radialGradient
       inkscape:collect="always"
       xlink:href="#linearGradient284"
       id="radialGradient285-5-2-6"
       cx="139.87589"
       cy="139.46051"
       fx="139.87589"
       fy="139.46051"
       r="1.7693707"
       gradientTransform="matrix(1,0,0,0.97391474,2.4020226,0.81809821)"
       gradientUnits="userSpaceOnUse"
       spreadMethod="reflect" />
    <inkscape:path-effect
       effect="lattice2"
       gridpoint0="140.59,135.0013"
       gridpoint1="143.96351,135.0013"
       gridpoint2="140.59231,138.2802"
       gridpoint3="143.96351,138.2802"
       gridpoint4="141.43511,135.0013"
       gridpoint5="143.12071,135.0013"
       gridpoint6="141.43511,138.2802"
       gridpoint7="143.12071,138.2802"
       gridpoint8x9="142.27791,135.0013"
       gridpoint10x11="142.27791,138.2802"
       gridpoint12="140.59231,135.82102"
       gridpoint13="143.96351,135.82102"
       gridpoint14="140.59231,137.46047"
       gridpoint15="143.96351,137.46047"
       gridpoint16="141.43511,135.82102"
       gridpoint17="143.12071,135.82102"
       gridpoint18="141.43511,137.46047"
       gridpoint19="143.12071,137.46047"
       gridpoint20x21="142.27791,135.82102"
       gridpoint22x23="142.27791,137.46047"
       gridpoint24x26="140.59231,136.64075"
       gridpoint25x27="143.96351,136.64075"
       gridpoint28x30="141.43511,136.64075"
       gridpoint29x31="143.12071,136.64075"
       gridpoint32x33x34x35="142.27791,136.64075"
       id="path-effect285-0-2-1"
       is_visible="true"
       lpeversion="1"
       horizontal_mirror="false"
       vertical_mirror="false"
       perimetral="true"
       live_update="true" />
    <radialGradient
       inkscape:collect="always"
       xlink:href="#linearGradient284"
       id="radialGradient285-5-2-5"
       cx="139.87589"
       cy="139.46051"
       fx="139.87589"
       fy="139.46051"
       r="1.7693707"
       gradientTransform="matrix(1,0,0,0.97391474,2.4020226,0.81809821)"
       gradientUnits="userSpaceOnUse"
       spreadMethod="reflect" />
    <inkscape:path-effect
       effect="lattice2"
       gridpoint0="140.59,135.0013"
       gridpoint1="143.96351,135.0013"
       gridpoint2="140.59231,138.2802"
       gridpoint3="143.96351,138.2802"
       gridpoint4="141.43511,135.0013"
       gridpoint5="143.12071,135.0013"
       gridpoint6="141.43511,138.2802"
       gridpoint7="143.12071,138.2802"
       gridpoint8x9="142.27791,135.0013"
       gridpoint10x11="142.27791,138.2802"
       gridpoint12="140.59231,135.82102"
       gridpoint13="143.96351,135.82102"
       gridpoint14="140.59231,137.46047"
       gridpoint15="143.96351,137.46047"
       gridpoint16="141.43511,135.82102"
       gridpoint17="143.12071,135.82102"
       gridpoint18="141.43511,137.46047"
       gridpoint19="143.12071,137.46047"
       gridpoint20x21="142.27791,135.82102"
       gridpoint22x23="142.27791,137.46047"
       gridpoint24x26="140.59231,136.64075"
       gridpoint25x27="143.96351,136.64075"
       gridpoint28x30="141.43511,136.64075"
       gridpoint29x31="143.12071,136.64075"
       gridpoint32x33x34x35="142.27791,136.64075"
       id="path-effect285-0-2-3"
       is_visible="true"
       lpeversion="1"
       horizontal_mirror="false"
       vertical_mirror="false"
       perimetral="true"
       live_update="true" />
    <radialGradient
       inkscape:collect="always"
       xlink:href="#linearGradient284"
       id="radialGradient285-9"
       cx="139.87589"
       cy="139.46051"
       fx="139.87589"
       fy="139.46051"
       r="1.7693707"
       gradientTransform="matrix(1,0,0,0.97391474,2.4020226,0.81809821)"
       gradientUnits="userSpaceOnUse"
       spreadMethod="reflect" />
    <inkscape:path-effect
       effect="lattice2"
       gridpoint0="140.59,135.0013"
       gridpoint1="143.96351,135.0013"
       gridpoint2="140.59231,138.2802"
       gridpoint3="143.96351,138.2802"
       gridpoint4="141.43511,135.0013"
       gridpoint5="143.12071,135.0013"
       gridpoint6="141.43511,138.2802"
       gridpoint7="143.12071,138.2802"
       gridpoint8x9="142.27791,135.0013"
       gridpoint10x11="142.27791,138.2802"
       gridpoint12="140.59231,135.82102"
       gridpoint13="143.96351,135.82102"
       gridpoint14="140.59231,137.46047"
       gridpoint15="143.96351,137.46047"
       gridpoint16="141.43511,135.82102"
       gridpoint17="143.12071,135.82102"
       gridpoint18="141.43511,137.46047"
       gridpoint19="143.12071,137.46047"
       gridpoint20x21="142.27791,135.82102"
       gridpoint22x23="142.27791,137.46047"
       gridpoint24x26="140.59231,136.64075"
       gridpoint25x27="143.96351,136.64075"
       gridpoint28x30="141.43511,136.64075"
       gridpoint29x31="143.12071,136.64075"
       gridpoint32x33x34x35="142.27791,136.64075"
       id="path-effect285-4"
       is_visible="true"
       lpeversion="1"
       horizontal_mirror="false"
       vertical_mirror="false"
       perimetral="true"
       live_update="true" />
    <radialGradient
       inkscape:collect="always"
       xlink:href="#linearGradient284"
       id="radialGradient285-8"
       cx="139.87589"
       cy="139.46051"
       fx="139.87589"
       fy="139.46051"
       r="1.7693707"
       gradientTransform="matrix(1,0,0,0.97391474,2.4020226,0.81809821)"
       gradientUnits="userSpaceOnUse"
       spreadMethod="reflect" />
    <inkscape:path-effect
       effect="lattice2"
       gridpoint0="140.59,135.0013"
       gridpoint1="143.96351,135.0013"
       gridpoint2="140.59231,138.2802"
       gridpoint3="143.96351,138.2802"
       gridpoint4="141.43511,135.0013"
       gridpoint5="143.12071,135.0013"
       gridpoint6="141.43511,138.2802"
       gridpoint7="143.12071,138.2802"
       gridpoint8x9="142.27791,135.0013"
       gridpoint10x11="142.27791,138.2802"
       gridpoint12="140.59231,135.82102"
       gridpoint13="143.96351,135.82102"
       gridpoint14="140.59231,137.46047"
       gridpoint15="143.96351,137.46047"
       gridpoint16="141.43511,135.82102"
       gridpoint17="143.12071,135.82102"
       gridpoint18="141.43511,137.46047"
       gridpoint19="143.12071,137.46047"
       gridpoint20x21="142.27791,135.82102"
       gridpoint22x23="142.27791,137.46047"
       gridpoint24x26="140.59231,136.64075"
       gridpoint25x27="143.96351,136.64075"
       gridpoint28x30="141.43511,136.64075"
       gridpoint29x31="143.12071,136.64075"
       gridpoint32x33x34x35="142.27791,136.64075"
       id="path-effect285-9"
       is_visible="true"
       lpeversion="1"
       horizontal_mirror="false"
       vertical_mirror="false"
       perimetral="true"
       live_update="true" />
    <radialGradient
       inkscape:collect="always"
       xlink:href="#linearGradient284"
       id="radialGradient285-3"
       cx="139.87589"
       cy="139.46051"
       fx="139.87589"
       fy="139.46051"
       r="1.7693707"
       gradientTransform="matrix(1,0,0,0.97391474,2.4020226,0.81809821)"
       gradientUnits="userSpaceOnUse"
       spreadMethod="reflect" />
    <inkscape:path-effect
       effect="lattice2"
       gridpoint0="140.59,135.0013"
       gridpoint1="143.96351,135.0013"
       gridpoint2="140.59231,138.2802"
       gridpoint3="143.96351,138.2802"
       gridpoint4="141.43511,135.0013"
       gridpoint5="143.12071,135.0013"
       gridpoint6="141.43511,138.2802"
       gridpoint7="143.12071,138.2802"
       gridpoint8x9="142.27791,135.0013"
       gridpoint10x11="142.27791,138.2802"
       gridpoint12="140.59231,135.82102"
       gridpoint13="143.96351,135.82102"
       gridpoint14="140.59231,137.46047"
       gridpoint15="143.96351,137.46047"
       gridpoint16="141.43511,135.82102"
       gridpoint17="143.12071,135.82102"
       gridpoint18="141.43511,137.46047"
       gridpoint19="143.12071,137.46047"
       gridpoint20x21="142.27791,135.82102"
       gridpoint22x23="142.27791,137.46047"
       gridpoint24x26="140.59231,136.64075"
       gridpoint25x27="143.96351,136.64075"
       gridpoint28x30="141.43511,136.64075"
       gridpoint29x31="143.12071,136.64075"
       gridpoint32x33x34x35="142.27791,136.64075"
       id="path-effect285-3"
       is_visible="true"
       lpeversion="1"
       horizontal_mirror="false"
       vertical_mirror="false"
       perimetral="true"
       live_update="true" />
    <rect
       x="464.1882"
       y="527.80334"
       width="172.09698"
       height="122.19654"
       id="rect1558-6" />
    <inkscape:path-effect
       effect="lattice2"
       gridpoint0="140.59,135.0013"
       gridpoint1="143.96351,135.0013"
       gridpoint2="140.59231,138.2802"
       gridpoint3="143.96351,138.2802"
       gridpoint4="141.43511,135.0013"
       gridpoint5="143.12071,135.0013"
       gridpoint6="141.43511,138.2802"
       gridpoint7="143.12071,138.2802"
       gridpoint8x9="142.27791,135.0013"
       gridpoint10x11="142.27791,138.2802"
       gridpoint12="140.59231,135.82102"
       gridpoint13="143.96351,135.82102"
       gridpoint14="140.59231,137.46047"
       gridpoint15="143.96351,137.46047"
       gridpoint16="141.43511,135.82102"
       gridpoint17="143.12071,135.82102"
       gridpoint18="141.43511,137.46047"
       gridpoint19="143.12071,137.46047"
       gridpoint20x21="142.27791,135.82102"
       gridpoint22x23="142.27791,137.46047"
       gridpoint24x26="140.59231,136.64075"
       gridpoint25x27="143.96351,136.64075"
       gridpoint28x30="141.43511,136.64075"
       gridpoint29x31="143.12071,136.64075"
       gridpoint32x33x34x35="142.27791,136.64075"
       id="path-effect285-0-6-3"
       is_visible="true"
       lpeversion="1"
       horizontal_mirror="false"
       vertical_mirror="false"
       perimetral="true"
       live_update="true" />
    <inkscape:path-effect
       effect="lattice2"
       gridpoint0="140.59,135.0013"
       gridpoint1="143.96351,135.0013"
       gridpoint2="140.59231,138.2802"
       gridpoint3="143.96351,138.2802"
       gridpoint4="141.43511,135.0013"
       gridpoint5="143.12071,135.0013"
       gridpoint6="141.43511,138.2802"
       gridpoint7="143.12071,138.2802"
       gridpoint8x9="142.27791,135.0013"
       gridpoint10x11="142.27791,138.2802"
       gridpoint12="140.59231,135.82102"
       gridpoint13="143.96351,135.82102"
       gridpoint14="140.59231,137.46047"
       gridpoint15="143.96351,137.46047"
       gridpoint16="141.43511,135.82102"
       gridpoint17="143.12071,135.82102"
       gridpoint18="141.43511,137.46047"
       gridpoint19="143.12071,137.46047"
       gridpoint20x21="142.27791,135.82102"
       gridpoint22x23="142.27791,137.46047"
       gridpoint24x26="140.59231,136.64075"
       gridpoint25x27="143.96351,136.64075"
       gridpoint28x30="141.43511,136.64075"
       gridpoint29x31="143.12071,136.64075"
       gridpoint32x33x34x35="142.27791,136.64075"
       id="path-effect285-1"
       is_visible="true"
       lpeversion="1"
       horizontal_mirror="false"
       vertical_mirror="false"
       perimetral="true"
       live_update="true" />
    <inkscape:path-effect
       effect="lattice2"
       gridpoint0="140.59,135.0013"
       gridpoint1="143.96351,135.0013"
       gridpoint2="140.59231,138.2802"
       gridpoint3="143.96351,138.2802"
       gridpoint4="141.43511,135.0013"
       gridpoint5="143.12071,135.0013"
       gridpoint6="141.43511,138.2802"
       gridpoint7="143.12071,138.2802"
       gridpoint8x9="142.27791,135.0013"
       gridpoint10x11="142.27791,138.2802"
       gridpoint12="140.59231,135.82102"
       gridpoint13="143.96351,135.82102"
       gridpoint14="140.59231,137.46047"
       gridpoint15="143.96351,137.46047"
       gridpoint16="141.43511,135.82102"
       gridpoint17="143.12071,135.82102"
       gridpoint18="141.43511,137.46047"
       gridpoint19="143.12071,137.46047"
       gridpoint20x21="142.27791,135.82102"
       gridpoint22x23="142.27791,137.46047"
       gridpoint24x26="140.59231,136.64075"
       gridpoint25x27="143.96351,136.64075"
       gridpoint28x30="141.43511,136.64075"
       gridpoint29x31="143.12071,136.64075"
       gridpoint32x33x34x35="142.27791,136.64075"
       id="path-effect285-4-5"
       is_visible="true"
       lpeversion="1"
       horizontal_mirror="false"
       vertical_mirror="false"
       perimetral="true"
       live_update="true" />
    <inkscape:path-effect
       effect="lattice2"
       gridpoint0="140.59,135.0013"
       gridpoint1="143.96351,135.0013"
       gridpoint2="140.59231,138.2802"
       gridpoint3="143.96351,138.2802"
       gridpoint4="141.43511,135.0013"
       gridpoint5="143.12071,135.0013"
       gridpoint6="141.43511,138.2802"
       gridpoint7="143.12071,138.2802"
       gridpoint8x9="142.27791,135.0013"
       gridpoint10x11="142.27791,138.2802"
       gridpoint12="140.59231,135.82102"
       gridpoint13="143.96351,135.82102"
       gridpoint14="140.59231,137.46047"
       gridpoint15="143.96351,137.46047"
       gridpoint16="141.43511,135.82102"
       gridpoint17="143.12071,135.82102"
       gridpoint18="141.43511,137.46047"
       gridpoint19="143.12071,137.46047"
       gridpoint20x21="142.27791,135.82102"
       gridpoint22x23="142.27791,137.46047"
       gridpoint24x26="140.59231,136.64075"
       gridpoint25x27="143.96351,136.64075"
       gridpoint28x30="141.43511,136.64075"
       gridpoint29x31="143.12071,136.64075"
       gridpoint32x33x34x35="142.27791,136.64075"
       id="path-effect285-9-8"
       is_visible="true"
       lpeversion="1"
       horizontal_mirror="false"
       vertical_mirror="false"
       perimetral="true"
       live_update="true" />
    <inkscape:path-effect
       effect="lattice2"
       gridpoint0="140.59,135.0013"
       gridpoint1="143.96351,135.0013"
       gridpoint2="140.59231,138.2802"
       gridpoint3="143.96351,138.2802"
       gridpoint4="141.43511,135.0013"
       gridpoint5="143.12071,135.0013"
       gridpoint6="141.43511,138.2802"
       gridpoint7="143.12071,138.2802"
       gridpoint8x9="142.27791,135.0013"
       gridpoint10x11="142.27791,138.2802"
       gridpoint12="140.59231,135.82102"
       gridpoint13="143.96351,135.82102"
       gridpoint14="140.59231,137.46047"
       gridpoint15="143.96351,137.46047"
       gridpoint16="141.43511,135.82102"
       gridpoint17="143.12071,135.82102"
       gridpoint18="141.43511,137.46047"
       gridpoint19="143.12071,137.46047"
       gridpoint20x21="142.27791,135.82102"
       gridpoint22x23="142.27791,137.46047"
       gridpoint24x26="140.59231,136.64075"
       gridpoint25x27="143.96351,136.64075"
       gridpoint28x30="141.43511,136.64075"
       gridpoint29x31="143.12071,136.64075"
       gridpoint32x33x34x35="142.27791,136.64075"
       id="path-effect285-3-0"
       is_visible="true"
       lpeversion="1"
       horizontal_mirror="false"
       vertical_mirror="false"
       perimetral="true"
       live_update="true" />
    <inkscape:path-effect
       effect="lattice2"
       gridpoint0="140.59,135.0013"
       gridpoint1="143.96351,135.0013"
       gridpoint2="140.59231,138.2802"
       gridpoint3="143.96351,138.2802"
       gridpoint4="141.43511,135.0013"
       gridpoint5="143.12071,135.0013"
       gridpoint6="141.43511,138.2802"
       gridpoint7="143.12071,138.2802"
       gridpoint8x9="142.27791,135.0013"
       gridpoint10x11="142.27791,138.2802"
       gridpoint12="140.59231,135.82102"
       gridpoint13="143.96351,135.82102"
       gridpoint14="140.59231,137.46047"
       gridpoint15="143.96351,137.46047"
       gridpoint16="141.43511,135.82102"
       gridpoint17="143.12071,135.82102"
       gridpoint18="141.43511,137.46047"
       gridpoint19="143.12071,137.46047"
       gridpoint20x21="142.27791,135.82102"
       gridpoint22x23="142.27791,137.46047"
       gridpoint24x26="140.59231,136.64075"
       gridpoint25x27="143.96351,136.64075"
       gridpoint28x30="141.43511,136.64075"
       gridpoint29x31="143.12071,136.64075"
       gridpoint32x33x34x35="142.27791,136.64075"
       id="path-effect285-0-4"
       is_visible="true"
       lpeversion="1"
       horizontal_mirror="false"
       vertical_mirror="false"
       perimetral="true"
       live_update="true" />
    <inkscape:path-effect
       effect="lattice2"
       gridpoint0="140.59,135.0013"
       gridpoint1="143.96351,135.0013"
       gridpoint2="140.59231,138.2802"
       gridpoint3="143.96351,138.2802"
       gridpoint4="141.43511,135.0013"
       gridpoint5="143.12071,135.0013"
       gridpoint6="141.43511,138.2802"
       gridpoint7="143.12071,138.2802"
       gridpoint8x9="142.27791,135.0013"
       gridpoint10x11="142.27791,138.2802"
       gridpoint12="140.59231,135.82102"
       gridpoint13="143.96351,135.82102"
       gridpoint14="140.59231,137.46047"
       gridpoint15="143.96351,137.46047"
       gridpoint16="141.43511,135.82102"
       gridpoint17="143.12071,135.82102"
       gridpoint18="141.43511,137.46047"
       gridpoint19="143.12071,137.46047"
       gridpoint20x21="142.27791,135.82102"
       gridpoint22x23="142.27791,137.46047"
       gridpoint24x26="140.59231,136.64075"
       gridpoint25x27="143.96351,136.64075"
       gridpoint28x30="141.43511,136.64075"
       gridpoint29x31="143.12071,136.64075"
       gridpoint32x33x34x35="142.27791,136.64075"
       id="path-effect285-0-2-72"
       is_visible="true"
       lpeversion="1"
       horizontal_mirror="false"
       vertical_mirror="false"
       perimetral="true"
       live_update="true" />
    <inkscape:path-effect
       effect="lattice2"
       gridpoint0="140.59,135.0013"
       gridpoint1="143.96351,135.0013"
       gridpoint2="140.59231,138.2802"
       gridpoint3="143.96351,138.2802"
       gridpoint4="141.43511,135.0013"
       gridpoint5="143.12071,135.0013"
       gridpoint6="141.43511,138.2802"
       gridpoint7="143.12071,138.2802"
       gridpoint8x9="142.27791,135.0013"
       gridpoint10x11="142.27791,138.2802"
       gridpoint12="140.59231,135.82102"
       gridpoint13="143.96351,135.82102"
       gridpoint14="140.59231,137.46047"
       gridpoint15="143.96351,137.46047"
       gridpoint16="141.43511,135.82102"
       gridpoint17="143.12071,135.82102"
       gridpoint18="141.43511,137.46047"
       gridpoint19="143.12071,137.46047"
       gridpoint20x21="142.27791,135.82102"
       gridpoint22x23="142.27791,137.46047"
       gridpoint24x26="140.59231,136.64075"
       gridpoint25x27="143.96351,136.64075"
       gridpoint28x30="141.43511,136.64075"
       gridpoint29x31="143.12071,136.64075"
       gridpoint32x33x34x35="142.27791,136.64075"
       id="path-effect285-0-2-7-8"
       is_visible="true"
       lpeversion="1"
       horizontal_mirror="false"
       vertical_mirror="false"
       perimetral="true"
       live_update="true" />
    <inkscape:path-effect
       effect="lattice2"
       gridpoint0="140.59,135.0013"
       gridpoint1="143.96351,135.0013"
       gridpoint2="140.59231,138.2802"
       gridpoint3="143.96351,138.2802"
       gridpoint4="141.43511,135.0013"
       gridpoint5="143.12071,135.0013"
       gridpoint6="141.43511,138.2802"
       gridpoint7="143.12071,138.2802"
       gridpoint8x9="142.27791,135.0013"
       gridpoint10x11="142.27791,138.2802"
       gridpoint12="140.59231,135.82102"
       gridpoint13="143.96351,135.82102"
       gridpoint14="140.59231,137.46047"
       gridpoint15="143.96351,137.46047"
       gridpoint16="141.43511,135.82102"
       gridpoint17="143.12071,135.82102"
       gridpoint18="141.43511,137.46047"
       gridpoint19="143.12071,137.46047"
       gridpoint20x21="142.27791,135.82102"
       gridpoint22x23="142.27791,137.46047"
       gridpoint24x26="140.59231,136.64075"
       gridpoint25x27="143.96351,136.64075"
       gridpoint28x30="141.43511,136.64075"
       gridpoint29x31="143.12071,136.64075"
       gridpoint32x33x34x35="142.27791,136.64075"
       id="path-effect285-0-2-1-1"
       is_visible="true"
       lpeversion="1"
       horizontal_mirror="false"
       vertical_mirror="false"
       perimetral="true"
       live_update="true" />
    <inkscape:path-effect
       effect="lattice2"
       gridpoint0="140.59,135.0013"
       gridpoint1="143.96351,135.0013"
       gridpoint2="140.59231,138.2802"
       gridpoint3="143.96351,138.2802"
       gridpoint4="141.43511,135.0013"
       gridpoint5="143.12071,135.0013"
       gridpoint6="141.43511,138.2802"
       gridpoint7="143.12071,138.2802"
       gridpoint8x9="142.27791,135.0013"
       gridpoint10x11="142.27791,138.2802"
       gridpoint12="140.59231,135.82102"
       gridpoint13="143.96351,135.82102"
       gridpoint14="140.59231,137.46047"
       gridpoint15="143.96351,137.46047"
       gridpoint16="141.43511,135.82102"
       gridpoint17="143.12071,135.82102"
       gridpoint18="141.43511,137.46047"
       gridpoint19="143.12071,137.46047"
       gridpoint20x21="142.27791,135.82102"
       gridpoint22x23="142.27791,137.46047"
       gridpoint24x26="140.59231,136.64075"
       gridpoint25x27="143.96351,136.64075"
       gridpoint28x30="141.43511,136.64075"
       gridpoint29x31="143.12071,136.64075"
       gridpoint32x33x34x35="142.27791,136.64075"
       id="path-effect285-0-2-3-0"
       is_visible="true"
       lpeversion="1"
       horizontal_mirror="false"
       vertical_mirror="false"
       perimetral="true"
       live_update="true" />
    <inkscape:path-effect
       effect="lattice2"
       gridpoint0="140.59,135.0013"
       gridpoint1="143.96351,135.0013"
       gridpoint2="140.59231,138.2802"
       gridpoint3="143.96351,138.2802"
       gridpoint4="141.43511,135.0013"
       gridpoint5="143.12071,135.0013"
       gridpoint6="141.43511,138.2802"
       gridpoint7="143.12071,138.2802"
       gridpoint8x9="142.27791,135.0013"
       gridpoint10x11="142.27791,138.2802"
       gridpoint12="140.59231,135.82102"
       gridpoint13="143.96351,135.82102"
       gridpoint14="140.59231,137.46047"
       gridpoint15="143.96351,137.46047"
       gridpoint16="141.43511,135.82102"
       gridpoint17="143.12071,135.82102"
       gridpoint18="141.43511,137.46047"
       gridpoint19="143.12071,137.46047"
       gridpoint20x21="142.27791,135.82102"
       gridpoint22x23="142.27791,137.46047"
       gridpoint24x26="140.59231,136.64075"
       gridpoint25x27="143.96351,136.64075"
       gridpoint28x30="141.43511,136.64075"
       gridpoint29x31="143.12071,136.64075"
       gridpoint32x33x34x35="142.27791,136.64075"
       id="path-effect285-0-5-1"
       is_visible="true"
       lpeversion="1"
       horizontal_mirror="false"
       vertical_mirror="false"
       perimetral="true"
       live_update="true" />
    <inkscape:path-effect
       effect="lattice2"
       gridpoint0="140.59,135.0013"
       gridpoint1="143.96351,135.0013"
       gridpoint2="140.59231,138.2802"
       gridpoint3="143.96351,138.2802"
       gridpoint4="141.43511,135.0013"
       gridpoint5="143.12071,135.0013"
       gridpoint6="141.43511,138.2802"
       gridpoint7="143.12071,138.2802"
       gridpoint8x9="142.27791,135.0013"
       gridpoint10x11="142.27791,138.2802"
       gridpoint12="140.59231,135.82102"
       gridpoint13="143.96351,135.82102"
       gridpoint14="140.59231,137.46047"
       gridpoint15="143.96351,137.46047"
       gridpoint16="141.43511,135.82102"
       gridpoint17="143.12071,135.82102"
       gridpoint18="141.43511,137.46047"
       gridpoint19="143.12071,137.46047"
       gridpoint20x21="142.27791,135.82102"
       gridpoint22x23="142.27791,137.46047"
       gridpoint24x26="140.59231,136.64075"
       gridpoint25x27="143.96351,136.64075"
       gridpoint28x30="141.43511,136.64075"
       gridpoint29x31="143.12071,136.64075"
       gridpoint32x33x34x35="142.27791,136.64075"
       id="path-effect285-0-0-5"
       is_visible="true"
       lpeversion="1"
       horizontal_mirror="false"
       vertical_mirror="false"
       perimetral="true"
       live_update="true" />
  </defs>
  <g
     id="g1"
     inkscape:label="logo no text"
     transform="translate(-58.933317,-110.90698)">
    <g
       inkscape:label="Warstwa 1"
       inkscape:groupmode="layer"
       id="layer1">
      <path
         id="rect282"
         style="fill:#e2e2e2;fill-opacity:1;stroke:#000000;stroke-width:0.771;stroke-dasharray:none;stroke-opacity:1"
         d="m 72.236939,113.22364 c -0.660523,0.38226 -11.918528,57.9326 -11.263239,58.85182 0.655289,0.91922 83.59771,14.20732 83.59771,14.20732 l 4.16161,-56.76311 c 0,0 -75.835558,-16.67829 -76.496081,-16.29603 z"
         sodipodi:nodetypes="zzccz" />
      <path
         id="rect1530"
         style="opacity:1;fill:#000000;stroke-width:2.20852;stroke-dasharray:none"
         transform="matrix(0.97469898,0.22352158,-0.21269393,0.97711887,0,0)"
         d="m 94.622603,98.30014 c 0.02558,0.09579 0.02286,0.193883 -0.0059,0.286406 l 78.690927,0.0026 1e-5,-0.286647 z"
         sodipodi:nodetypes="ccccc" />
      <path
         id="rect1530-2"
         style="fill:#000000;stroke-width:1.96204;stroke-dasharray:none"
         transform="matrix(0.98567698,0.16864428,-0.28007893,0.95997698,0,0)"
         d="m 104.55117,131.81902 c 0.0283,0.0722 0.0407,0.14783 0.0367,0.2234 l 81.32846,0.0178 -0.0316,-0.23004 z"
         sodipodi:nodetypes="ccccc" />
      <rect
         style="fill:#000000;stroke-width:1.92193;stroke-dasharray:none"
         id="rect1530-2-8"
         width="83.830757"
         height="0.22093043"
         x="105.09789"
         y="153.54373"
         transform="matrix(0.98446411,0.17558595,-0.26951982,0.96299484,0,0)" />
      <path
         id="rect1530-2-88"
         style="fill:#000000;stroke-width:1.91327;stroke-dasharray:none"
         transform="matrix(0.98526769,0.17101922,-0.27638271,0.96104766,0,0)"
         d="m 105.60119,149.90697 c 0.0419,0.071 0.0614,0.14619 0.0579,0.2193 l 83.51708,-0.0104 -0.0112,-0.20444 z"
         sodipodi:nodetypes="ccccc" />
      <path
         id="rect1530-2-7"
         style="fill:#000000;stroke-width:1.95838;stroke-dasharray:none"
         transform="matrix(0.98431684,0.17640966,-0.26831492,0.96333125,0,0)"
         d="m 103.96559,144.0569 c 0.014,0.0762 0.0475,0.17682 0.0272,0.25119 l 82.90566,0.0136 4.6e-4,-0.22753 z"
         sodipodi:nodetypes="ccccc" />
      <path
         id="rect1530-2-5"
         style="fill:#000000;stroke-width:1.92146;stroke-dasharray:none"
         transform="matrix(0.98596016,0.1669807,-0.28272208,0.95920187,0,0)"
         d="m 105.77941,141.42538 c 0.0334,0.0725 -0.24691,0.0981 -0.24431,0.16988 l 82.74815,0.10716 -3e-5,-0.21764 z"
         sodipodi:nodetypes="ccccc" />
      <path
         id="rect1530-2-5-4"
         style="fill:#000000;stroke-width:1.95247;stroke-dasharray:none"
         transform="matrix(0.98553626,0.16946471,-0.27879193,0.96035153,0,0)"
         d="m 104.74754,136.29604 c 0.0436,0.0743 0.0724,0.1496 0.0861,0.22266 l 81.85369,0.006 -0.0524,-0.22929 z"
         sodipodi:nodetypes="ccccc" />
      <path
         id="rect1530-8"
         style="fill:#000000;stroke-width:2.03046;stroke-dasharray:none"
         transform="matrix(0.9840352,0.17797397,-0.26605351,0.96395826,0,0)"
         d="m 102.12723,125.2341 c 0.0133,0.0796 0.008,0.15986 -0.0167,0.23735 l 80.79277,-0.008 -0.03,-0.23141 z"
         sodipodi:nodetypes="ccccc" />
      <path
         id="rect1530-7"
         style="fill:#000000;stroke-width:2.10109;stroke-dasharray:none"
         transform="matrix(0.98224851,0.18758429,-0.25288925,0.96749523,0,0)"
         d="m 99.948658,118.64853 c 0.06235,0.0814 0.02727,0.16433 0.04886,0.24904 l 80.127158,0.002 -6e-5,-0.25156 z"
         sodipodi:nodetypes="ccccc" />
      <path
         id="rect1530-86"
         style="fill:#000000;stroke-width:2.18964;stroke-dasharray:none"
         transform="matrix(0.97973164,0.20031453,-0.23718038,0.97146563,0,0)"
         d="m 97.567218,111.63717 c 0.0088,0.0898 -0.0059,0.18185 -0.0449,0.26991 l 79.895712,0.002 -10e-6,-0.27022 z"
         sodipodi:nodetypes="ccccc" />
      <path
         id="rect1530-3"
         style="fill:#000000;stroke-width:2.29371;stroke-dasharray:none"
         transform="matrix(0.97641835,0.21588703,-0.22022693,0.97544867,0,0)"
         d="m 95.612214,104.21038 c -0.01348,0.0219 -0.04696,0.0422 -0.06878,0.0634 0.05379,0.071 0.08798,0.1492 0.103182,0.22986 l 79.101344,0.0118 7e-5,-0.29298 z"
         sodipodi:nodetypes="cccccc" />
      <text
         xml:space="preserve"
         transform="matrix(0.33937402,4.4783902,-3.8403336,0.36225734,1997.2964,-2149.5228)"
         id="text1558"
         style="font-style:normal;font-variant:normal;font-weight:normal;font-stretch:normal;font-size:12px;font-family:'MV Boli';-inkscape-font-specification:'MV Boli, Normal';font-variant-ligatures:normal;font-variant-caps:normal;font-variant-numeric:normal;font-variant-east-asian:normal;white-space:pre;shape-inside:url(#rect1558);display:inline;opacity:1;fill:#000000;stroke-width:8.69291;stroke-dasharray:none"><tspan
           x="464.1875"
           y="538.4195"
           id="tspan2">N</tspan></text>
    </g>
    <g
       id="g294"
       style="display:inline">
      <path
         style="display:inline;fill:#ffffff;stroke:url(#radialGradient285-5-04);stroke-width:2.3;stroke-miterlimit:4;stroke-dasharray:none;stroke-opacity:1"
         id="path283-7-4"
         inkscape:path-effect="#path-effect285-0-6"
         sodipodi:type="arc"
         sodipodi:cx="142.27791"
         sodipodi:cy="136.64075"
         sodipodi:rx="1.6856033"
         sodipodi:ry="1.6394488"
         d="m 143.96351,136.64075 c 0,0.90544 -0.75467,1.63946 -1.6856,1.63946 -0.93093,0 -1.68611,-0.73402 -1.68675,-1.63946 -6.3e-4,-0.90544 0.75403,-1.63945 1.6856,-1.63945 0.93157,0 1.68675,0.73401 1.68675,1.63945 z"
         transform="translate(1.466154,14.048474)" />
      <path
         style="display:inline;opacity:1;fill:#ffffff;stroke:url(#radialGradient285);stroke-width:2.3;stroke-miterlimit:4;stroke-dasharray:none;stroke-opacity:1"
         id="path283"
         inkscape:path-effect="#path-effect285"
         sodipodi:type="arc"
         sodipodi:cx="142.27791"
         sodipodi:cy="136.64075"
         sodipodi:rx="1.6856033"
         sodipodi:ry="1.6394488"
         d="m 143.96351,136.64075 c 0,0.90544 -0.75467,1.63946 -1.6856,1.63946 -0.93093,0 -1.68611,-0.73402 -1.68675,-1.63946 -6.3e-4,-0.90544 0.75403,-1.63945 1.6856,-1.63945 0.93157,0 1.68675,0.73401 1.68675,1.63945 z"
         transform="translate(1.8085501,9.3933097)" />
      <path
         style="display:inline;fill:#ffffff;stroke:url(#radialGradient285-9);stroke-width:2.3;stroke-miterlimit:4;stroke-dasharray:none;stroke-opacity:1"
         id="path283-2"
         inkscape:path-effect="#path-effect285-4"
         sodipodi:type="arc"
         sodipodi:cx="142.27791"
         sodipodi:cy="136.64075"
         sodipodi:rx="1.6856033"
         sodipodi:ry="1.6394488"
         d="m 143.96351,136.64075 c 0,0.90544 -0.75467,1.63946 -1.6856,1.63946 -0.93093,0 -1.68611,-0.73402 -1.68675,-1.63946 -6.3e-4,-0.90544 0.75403,-1.63945 1.6856,-1.63945 0.93157,0 1.68675,0.73401 1.68675,1.63945 z"
         transform="translate(3.2429948,-4.967091)" />
      <path
         style="display:inline;fill:#ffffff;stroke:url(#radialGradient285-8);stroke-width:2.3;stroke-miterlimit:4;stroke-dasharray:none;stroke-opacity:1"
         id="path283-5"
         inkscape:path-effect="#path-effect285-9"
         sodipodi:type="arc"
         sodipodi:cx="142.27791"
         sodipodi:cy="136.64075"
         sodipodi:rx="1.6856033"
         sodipodi:ry="1.6394488"
         d="m 143.96351,136.64075 c 0,0.90544 -0.75467,1.63946 -1.6856,1.63946 -0.93093,0 -1.68611,-0.73402 -1.68675,-1.63946 -6.3e-4,-0.90544 0.75403,-1.63945 1.6856,-1.63945 0.93157,0 1.68675,0.73401 1.68675,1.63945 z"
         transform="translate(2.8230294,-0.04069894)" />
      <path
         style="display:inline;fill:#ffffff;stroke:url(#radialGradient285-3);stroke-width:2.3;stroke-miterlimit:4;stroke-dasharray:none;stroke-opacity:1"
         id="path283-6"
         inkscape:path-effect="#path-effect285-3"
         sodipodi:type="arc"
         sodipodi:cx="142.27791"
         sodipodi:cy="136.64075"
         sodipodi:rx="1.6856033"
         sodipodi:ry="1.6394488"
         d="m 143.96351,136.64075 c 0,0.90544 -0.75467,1.63946 -1.6856,1.63946 -0.93093,0 -1.68611,-0.73402 -1.68675,-1.63946 -6.3e-4,-0.90544 0.75403,-1.63945 1.6856,-1.63945 0.93157,0 1.68675,0.73401 1.68675,1.63945 z"
         transform="translate(2.154189,4.8075353)" />
      <path
         style="display:inline;fill:#ffffff;stroke:url(#radialGradient285-5);stroke-width:2.3;stroke-miterlimit:4;stroke-dasharray:none;stroke-opacity:1"
         id="path283-7"
         inkscape:path-effect="#path-effect285-0"
         sodipodi:type="arc"
         sodipodi:cx="142.27791"
         sodipodi:cy="136.64075"
         sodipodi:rx="1.6856033"
         sodipodi:ry="1.6394488"
         d="m 143.96351,136.64075 c 0,0.90544 -0.75467,1.63946 -1.6856,1.63946 -0.93093,0 -1.68611,-0.73402 -1.68675,-1.63946 -6.3e-4,-0.90544 0.75403,-1.63945 1.6856,-1.63945 0.93157,0 1.68675,0.73401 1.68675,1.63945 z"
         transform="translate(-0.88575999,46.373889)" />
      <path
         style="display:inline;fill:#ffffff;stroke:url(#radialGradient285-5-2);stroke-width:2.3;stroke-miterlimit:4;stroke-dasharray:none;stroke-opacity:1"
         id="path283-7-0"
         inkscape:path-effect="#path-effect285-0-2"
         sodipodi:type="arc"
         sodipodi:cx="142.27791"
         sodipodi:cy="136.64075"
         sodipodi:rx="1.6856033"
         sodipodi:ry="1.6394488"
         d="m 143.96351,136.64075 c 0,0.90544 -0.75467,1.63946 -1.6856,1.63946 -0.93093,0 -1.68611,-0.73402 -1.68675,-1.63946 -6.3e-4,-0.90544 0.75403,-1.63945 1.6856,-1.63945 0.93157,0 1.68675,0.73401 1.68675,1.63945 z"
         transform="translate(-0.56265768,41.817584)" />
      <path
         style="display:inline;fill:#ffffff;stroke:url(#radialGradient285-5-2-0);stroke-width:2.3;stroke-miterlimit:4;stroke-dasharray:none;stroke-opacity:1"
         id="path283-7-0-7"
         inkscape:path-effect="#path-effect285-0-2-7"
         sodipodi:type="arc"
         sodipodi:cx="142.27791"
         sodipodi:cy="136.64075"
         sodipodi:rx="1.6856033"
         sodipodi:ry="1.6394488"
         d="m 143.96351,136.64075 c 0,0.90544 -0.75467,1.63946 -1.6856,1.63946 -0.93093,0 -1.68611,-0.73402 -1.68675,-1.63946 -6.3e-4,-0.90544 0.75403,-1.63945 1.6856,-1.63945 0.93157,0 1.68675,0.73401 1.68675,1.63945 z"
         transform="translate(0.11927261,32.549002)" />
      <path
         style="display:inline;fill:#ffffff;stroke:url(#radialGradient285-5-2-6);stroke-width:2.3;stroke-miterlimit:4;stroke-dasharray:none;stroke-opacity:1"
         id="path283-7-0-6"
         inkscape:path-effect="#path-effect285-0-2-1"
         sodipodi:type="arc"
         sodipodi:cx="142.27791"
         sodipodi:cy="136.64075"
         sodipodi:rx="1.6856033"
         sodipodi:ry="1.6394488"
         d="m 143.96351,136.64075 c 0,0.90544 -0.75467,1.63946 -1.6856,1.63946 -0.93093,0 -1.68611,-0.73402 -1.68675,-1.63946 -6.3e-4,-0.90544 0.75403,-1.63945 1.6856,-1.63945 0.93157,0 1.68675,0.73401 1.68675,1.63945 z"
         transform="translate(-0.21375394,37.191013)" />
      <path
         style="display:inline;fill:#ffffff;stroke:url(#radialGradient285-5-2-5);stroke-width:2.3;stroke-miterlimit:4;stroke-dasharray:none;stroke-opacity:1"
         id="path283-7-0-0"
         inkscape:path-effect="#path-effect285-0-2-3"
         sodipodi:type="arc"
         sodipodi:cx="142.27791"
         sodipodi:cy="136.64075"
         sodipodi:rx="1.6856033"
         sodipodi:ry="1.6394488"
         d="m 143.96351,136.64075 c 0,0.90544 -0.75467,1.63946 -1.6856,1.63946 -0.93093,0 -1.68611,-0.73402 -1.68675,-1.63946 -6.3e-4,-0.90544 0.75403,-1.63945 1.6856,-1.63945 0.93157,0 1.68675,0.73401 1.68675,1.63945 z"
         transform="translate(0.45227647,27.914764)" />
      <path
         style="display:inline;fill:#ffffff;stroke:url(#radialGradient285-5-0);stroke-width:2.3;stroke-miterlimit:4;stroke-dasharray:none;stroke-opacity:1"
         id="path283-7-5"
         inkscape:path-effect="#path-effect285-0-5"
         sodipodi:type="arc"
         sodipodi:cx="142.27791"
         sodipodi:cy="136.64075"
         sodipodi:rx="1.6856033"
         sodipodi:ry="1.6394488"
         d="m 143.96351,136.64075 c 0,0.90544 -0.75467,1.63946 -1.6856,1.63946 -0.93093,0 -1.68611,-0.73402 -1.68675,-1.63946 -6.3e-4,-0.90544 0.75403,-1.63945 1.6856,-1.63945 0.93157,0 1.68675,0.73401 1.68675,1.63945 z"
         transform="translate(0.82392681,23.303819)" />
      <path
         style="display:inline;fill:#ffffff;stroke:url(#radialGradient285-5-3);stroke-width:2.3;stroke-miterlimit:4;stroke-dasharray:none;stroke-opacity:1"
         id="path283-7-7"
         inkscape:path-effect="#path-effect285-0-0"
         sodipodi:type="arc"
         sodipodi:cx="142.27791"
         sodipodi:cy="136.64075"
         sodipodi:rx="1.6856033"
         sodipodi:ry="1.6394488"
         d="m 143.96351,136.64075 c 0,0.90544 -0.75467,1.63946 -1.6856,1.63946 -0.93093,0 -1.68611,-0.73402 -1.68675,-1.63946 -6.3e-4,-0.90544 0.75403,-1.63945 1.6856,-1.63945 0.93157,0 1.68675,0.73401 1.68675,1.63945 z"
         transform="translate(1.133298,18.666194)" />
    </g>
    <g
       id="g1588"
       style="display:inline">
      <path
         style="opacity:1;fill:#000000;stroke-width:2.3;stroke-dasharray:none"
         id="path1579"
         d="m 143.58651,136.02055 c -0.002,-0.002 -0.004,-0.004 -0.007,-0.006 -5.3e-4,-5.3e-4 0.001,10e-4 0.002,0.002 7.9e-4,7.9e-4 0.003,0.004 0.003,0.003 -5.3e-4,-7.9e-4 -0.006,-0.006 -0.002,-0.003 0.0169,0.022 0.0171,0.0489 0.003,0.0723 -0.005,0.008 -0.0165,0.0166 -0.011,0.0125 0.0143,-0.0121 0.0263,-0.029 0.0269,-0.0488 2.6e-4,-0.0116 -0.003,-0.023 -0.006,-0.0343 -10e-4,-0.005 -0.0122,-0.0183 -0.0133,-0.0197 -0.0156,-0.0155 -0.0331,-0.0218 -0.0544,-0.0236 -0.0128,-2.7e-4 -0.0252,0.002 -0.0374,0.005 -0.0168,0.004 -0.0316,0.0154 -0.0417,0.0294 -0.003,0.004 -0.005,0.008 -0.007,0.0119 -0.005,0.0112 -0.008,0.0226 -0.008,0.0349 1.9e-4,0.006 0.001,0.012 0.002,0.018 0.001,0.007 0.006,0.0147 0.009,0.0212 0.007,0.0106 0.006,0.009 0.0159,0.0189 0.003,0.003 0.007,0.005 0.01,0.008 0.008,0.006 0.0166,0.0124 0.0262,0.016 0.004,0.002 0.008,0.003 0.0127,0.004 0.0907,0.0227 0.12288,-0.10561 0.0321,-0.12833 v 0 c 0.003,10e-4 0.0116,0.004 0.014,0.007 1.9e-4,2.4e-4 -5.3e-4,-2.7e-4 -7.9e-4,-5.3e-4 -0.001,-8e-4 -0.002,-0.002 -0.003,-0.003 -10e-4,-7.9e-4 -0.002,-0.002 -0.003,-0.002 -5.3e-4,-2.6e-4 -0.002,-0.002 -0.002,-0.001 2.3e-4,7.9e-4 0.001,7.9e-4 0.002,0.001 0.007,0.008 0.005,0.005 0.0103,0.013 0.001,0.003 0.003,0.006 0.004,0.01 0.005,0.0131 0.003,0.0284 -0.003,0.0408 -0.002,0.003 -0.003,0.006 -0.005,0.008 -0.005,0.006 -0.009,0.0102 -0.0162,0.0144 -0.006,0.004 -0.007,0.003 -0.0131,0.006 -0.001,5.3e-4 0.002,-5.3e-4 0.003,-10e-4 -0.003,5.3e-4 -0.0103,0.002 -0.003,7.9e-4 0.003,-5.2e-4 7.9e-4,-1e-4 -2.7e-4,-1e-4 -0.003,0 -0.005,-8e-5 -0.008,-1.3e-4 -0.013,-0.002 -0.0241,-0.009 -0.0333,-0.0183 -5.3e-4,-5.3e-4 -0.01,-0.0121 -0.0104,-0.0159 -0.002,-0.0108 -0.006,-0.0216 -0.005,-0.0326 8e-4,-0.017 0.011,-0.0328 0.0237,-0.0432 -0.0228,0.0178 -0.0331,0.0418 -0.0285,0.071 10e-4,0.008 0.006,0.016 0.009,0.0237 0.001,0.003 0.004,0.005 0.005,0.008 0.005,0.006 0.0107,0.0132 0.0179,0.0187 0.001,0.001 -0.003,-0.002 -0.004,-0.004 0.0661,0.0661 0.15969,-0.0274 0.0935,-0.0935 z" />
      <path
         style="opacity:1;fill:#000000;stroke-width:2.3;stroke-dasharray:none"
         id="path1560"
         d="m 144.91554,131.41841 c 0.3822,0.13714 0.77326,0.24736 1.16504,0.35324 0.49785,0.14461 0.97726,0.34256 1.44595,0.56241 0.37057,0.18983 0.74483,0.38348 1.08241,0.62944 0.16092,0.11724 0.25712,0.21016 0.40424,0.3422 0.34646,0.30761 0.54411,0.71763 0.718,1.13757 0.0814,0.26475 0.22268,0.58526 0.1604,0.86679 -0.0554,0.15167 -0.14442,0.30489 -0.28158,0.39542 -0.1459,0.10887 -0.30517,0.19517 -0.45995,0.29001 -0.16742,0.0833 -0.33684,0.16055 -0.50175,0.24876 -0.0773,0.0307 -0.15131,0.0678 -0.22858,0.0987 -0.2601,0.10536 -0.1111,0.47321 0.149,0.36785 v 0 c 0.09,-0.0369 0.17737,-0.0782 0.26676,-0.11657 0.17188,-0.0919 0.34966,-0.17029 0.52245,-0.26064 0.16427,-0.10142 0.33362,-0.1937 0.48877,-0.30953 0.21271,-0.16663 0.36743,-0.38632 0.43668,-0.65068 0.007,-0.0549 0.0199,-0.10928 0.0219,-0.16459 0.0114,-0.31379 -0.11354,-0.62544 -0.20751,-0.91759 -0.1973,-0.47466 -0.42833,-0.9341 -0.81986,-1.28117 -0.17144,-0.15311 -0.26031,-0.23993 -0.44895,-0.37682 -0.35405,-0.25694 -0.74563,-0.4602 -1.13407,-0.65853 -0.48978,-0.22911 -0.99045,-0.43603 -1.51075,-0.58614 -0.38374,-0.1037 -0.76685,-0.21143 -1.14115,-0.34597 -0.25729,-0.0872 -0.71739,-0.23447 -0.96959,-0.3353 -0.007,0.005 -0.11033,0.049 -0.20128,0.36428 z"
         sodipodi:nodetypes="cccscccccccsscccccccscccccc" />
      <path
         style="opacity:1;fill:#000000;stroke-width:2.3;stroke-dasharray:none"
         id="path1561"
         d="m 143.59436,136.37274 c 0.24228,0.0256 0.47785,0.0887 0.71655,0.13481 0.33625,0.0508 0.67102,0.10635 0.99984,0.19382 0.34024,0.0876 0.65922,0.23522 0.97862,0.3782 0.31911,0.16369 0.63124,0.34143 0.93457,0.53275 0.32667,0.20128 0.63711,0.42691 0.95219,0.64545 0.25609,0.16032 0.46315,0.37468 0.66779,0.59312 0.17916,0.1771 0.27451,0.40209 0.36134,0.63334 0.0823,0.24752 0.12941,0.50757 0.10078,0.76783 -0.0229,0.21345 -0.12988,0.40037 -0.23275,0.58405 -0.0958,0.16673 -0.24434,0.29511 -0.38173,0.427 -0.12427,0.12652 -0.24431,0.25382 -0.38537,0.36174 -0.12236,0.0864 -0.24882,0.16662 -0.38003,0.23888 -0.24545,0.13605 -0.0531,0.48317 0.1924,0.34712 v 0 c 0.14795,-0.0824 0.29158,-0.17217 0.42915,-0.27108 0.15248,-0.11719 0.28523,-0.25247 0.41872,-0.39038 0.16569,-0.15911 0.34014,-0.31641 0.45313,-0.51936 0.12989,-0.23192 0.2548,-0.4705 0.28153,-0.73993 0.0279,-0.32153 -0.0172,-0.64056 -0.12439,-0.94569 -0.10551,-0.27966 -0.22846,-0.54988 -0.44317,-0.76488 -0.22378,-0.23881 -0.45247,-0.47136 -0.73122,-0.64788 -0.31992,-0.22184 -0.63517,-0.45083 -0.96685,-0.65514 -0.31936,-0.2009 -0.64735,-0.38865 -0.98396,-0.55919 -0.33896,-0.1517 -0.678,-0.30693 -1.03912,-0.39959 -0.33776,-0.0891 -0.68098,-0.14876 -1.02642,-0.19989 -0.26328,-0.0505 -0.5232,-0.12256 -0.7916,-0.14197 -0.28063,0 -0.28063,0.39687 0,0.39687 z" />
      <path
         style="opacity:1;fill:#000000;stroke-width:2.3;stroke-dasharray:none"
         id="path1562"
         d="m 143.02931,140.80649 c 0.17883,0.0458 0.35735,0.0934 0.53795,0.13269 0.26692,0.0479 0.53183,0.10598 0.79496,0.17145 0.32258,0.0661 0.64202,0.14435 0.96049,0.22767 0.34418,0.0922 0.68464,0.19735 1.01502,0.33114 0.41225,0.1804 0.80005,0.40794 1.1883,0.63383 0.38851,0.22043 0.72,0.5165 1.01602,0.84786 0.17717,0.21029 0.32681,0.4413 0.40313,0.70667 0.0442,0.14461 0.0135,0.28097 -0.0254,0.42193 -0.0473,0.11073 -0.111,0.21479 -0.18386,0.3107 -0.0833,0.11716 -0.1791,0.22485 -0.26374,0.3412 -0.0767,0.0984 -0.1589,0.19224 -0.24772,0.27998 -0.0917,0.11627 -0.20086,0.21161 -0.32067,0.29747 -0.067,0.0516 -0.12907,0.1087 -0.19471,0.16185 -0.2169,0.17808 0.035,0.48481 0.25184,0.30674 v 0 c 0.0591,-0.049 0.11628,-0.0997 0.17627,-0.1476 0.1352,-0.0993 0.2644,-0.20593 0.36864,-0.33857 0.10218,-0.10392 0.20021,-0.21167 0.28837,-0.3279 0.0824,-0.11601 0.17996,-0.22061 0.26107,-0.33754 0.0992,-0.13694 0.19165,-0.28081 0.24732,-0.44159 0.0577,-0.21221 0.0882,-0.42411 0.0231,-0.6396 -0.0973,-0.32062 -0.26929,-0.60486 -0.48806,-0.85863 -0.32478,-0.36125 -0.68715,-0.68508 -1.11198,-0.92601 -0.40469,-0.23543 -0.80928,-0.47204 -1.23951,-0.65889 -0.34642,-0.13903 -0.70221,-0.25118 -1.06293,-0.34699 -0.32004,-0.0837 -0.64101,-0.16266 -0.96521,-0.22887 -0.2671,-0.0663 -0.5359,-0.1257 -0.80683,-0.17422 -0.17655,-0.0379 -0.35086,-0.0849 -0.52556,-0.1298 -0.27226,-0.0681 -0.36852,0.31696 -0.0963,0.38503 z" />
      <path
         style="opacity:1;fill:#000000;stroke-width:2.3;stroke-dasharray:none"
         id="path1563"
         d="m 142.7082,145.5298 c 0.19351,-0.006 0.38532,0.0259 0.57762,0.0437 0.25,0.0294 0.49602,0.0821 0.73663,0.1555 0.28675,0.0934 0.56844,0.19934 0.84851,0.31089 0.34892,0.1336 0.68012,0.30627 1.01082,0.47871 0.38032,0.19643 0.73526,0.43209 1.07986,0.68488 0.36518,0.25493 0.68402,0.56412 0.95794,0.91391 0.17827,0.24703 0.33353,0.51052 0.42097,0.80333 0.043,0.17092 0.0438,0.34542 -0.0176,0.51105 -0.0498,0.14907 -0.14015,0.27788 -0.21211,0.416 -0.0641,0.12667 -0.15945,0.23577 -0.26031,0.33479 -0.0859,0.1025 -0.1979,0.17522 -0.30709,0.25015 -0.0978,0.0548 -0.19392,0.11177 -0.29017,0.16922 -0.24083,0.14407 -0.0371,0.48465 0.20375,0.34058 v 0 c 0.1032,-0.0619 0.20716,-0.12161 0.31097,-0.18256 0.12902,-0.0885 0.26011,-0.17738 0.36315,-0.29674 0.12818,-0.1298 0.25075,-0.2696 0.33264,-0.43395 0.0787,-0.15614 0.183,-0.30006 0.23482,-0.46945 0.0803,-0.24783 0.0919,-0.5014 0.0217,-0.75466 -0.10476,-0.33911 -0.2783,-0.64777 -0.48877,-0.9332 -0.29776,-0.37674 -0.64007,-0.7131 -1.03519,-0.98856 -0.36096,-0.26441 -0.73291,-0.51092 -1.13099,-0.7167 -0.34263,-0.17865 -0.68606,-0.35695 -1.04747,-0.49551 -0.29051,-0.1157 -0.58283,-0.22531 -0.8803,-0.32201 -0.26647,-0.0803 -0.53851,-0.13955 -0.81533,-0.17088 -0.20435,-0.0188 -0.40829,-0.0514 -0.61398,-0.0453 -0.28064,0 -0.28064,0.39687 0,0.39687 z" />
      <path
         style="opacity:1;fill:#000000;stroke-width:2.3;stroke-dasharray:none"
         id="path1564"
         d="m 142.45657,150.03946 c 0.28249,0.0504 0.55775,0.13548 0.83332,0.21422 0.47047,0.10106 0.93145,0.23042 1.38483,0.3911 0.41068,0.16786 0.79604,0.39165 1.15685,0.64856 0.31269,0.23203 0.59054,0.50466 0.8452,0.79812 0.28712,0.32631 0.51031,0.70146 0.75742,1.0577 0.19889,0.31108 0.44411,0.5942 0.61785,0.92085 0.0714,0.1494 0.1678,0.31016 0.16258,0.48161 -0.0665,0.14436 -0.16593,0.26366 -0.27289,0.37929 -0.10478,0.11287 -0.23517,0.19183 -0.35467,0.28651 -0.0995,0.0723 -0.22057,0.10648 -0.33266,0.15492 -0.12472,0.0473 -0.24254,0.10874 -0.35908,0.17302 -0.24573,0.13554 -0.054,0.48305 0.19168,0.34751 v 0 c 0.10574,-0.0583 0.21231,-0.11428 0.32581,-0.15664 0.14365,-0.0631 0.29805,-0.1079 0.42176,-0.20857 0.1343,-0.10815 0.28244,-0.19815 0.3991,-0.32789 0.17507,-0.19082 0.34221,-0.39618 0.3776,-0.66156 -0.014,-0.23478 -0.0956,-0.45176 -0.20999,-0.65672 -0.1845,-0.3379 -0.4295,-0.63763 -0.64102,-0.95858 -0.25543,-0.36804 -0.48636,-0.75545 -0.78403,-1.0919 -0.27591,-0.31659 -0.57607,-0.61143 -0.91485,-0.86123 -0.39131,-0.2773 -0.80825,-0.52001 -1.25419,-0.69911 -0.46114,-0.16313 -0.92965,-0.29654 -1.40827,-0.39859 -0.28587,-0.0817 -0.57149,-0.16937 -0.86451,-0.22179 -0.27519,-0.055 -0.35302,0.33414 -0.0778,0.38917 z" />
      <path
         style="opacity:1;fill:#000000;stroke-width:2.3;stroke-dasharray:none"
         id="path1565"
         d="m 142.27395,154.53916 c 0.2266,-0.0113 0.44917,0.0348 0.66942,0.0823 0.34265,0.0769 0.67751,0.18915 1.01109,0.29891 0.31084,0.13036 0.60568,0.29631 0.89881,0.46197 0.29058,0.15875 0.55861,0.34659 0.81861,0.55031 0.29556,0.25742 0.56585,0.54234 0.84093,0.82114 0.31462,0.29726 0.59319,0.62726 0.87207,0.95723 0.23228,0.28731 0.43441,0.59402 0.60437,0.92171 0.11388,0.23158 0.16488,0.46997 0.139,0.72588 -0.0247,0.18081 -0.0679,0.36186 -0.17888,0.5093 -0.1117,0.1025 -0.23097,0.20228 -0.36468,0.27499 -0.13969,0.0482 -0.26861,0.11809 -0.39981,0.18481 -0.17472,0.0598 -0.3389,0.14504 -0.50563,0.2234 -0.25392,0.1195 -0.0849,0.47859 0.169,0.35909 v 0 c 0.17056,-0.0804 0.33906,-0.16549 0.51701,-0.22898 0.13611,-0.0697 0.27087,-0.13819 0.41426,-0.19256 0.18136,-0.10439 0.35105,-0.23408 0.49209,-0.38907 0.14726,-0.21043 0.2237,-0.45117 0.252,-0.7064 0.0265,-0.34051 -0.0302,-0.63604 -0.18228,-0.94363 -0.18431,-0.35329 -0.40173,-0.68519 -0.65333,-0.99472 -0.28546,-0.33775 -0.57101,-0.6752 -0.89268,-0.97979 -0.2869,-0.29079 -0.56868,-0.58823 -0.87867,-0.85481 -0.27564,-0.21596 -0.56057,-0.41462 -0.86818,-0.58345 -0.31573,-0.1783 -0.63329,-0.35741 -0.97,-0.49342 -0.34694,-0.11409 -0.69533,-0.23028 -1.05179,-0.30994 -0.24763,-0.0529 -0.66144,-0.10694 -0.91603,-0.0953 0,0 -0.29722,0.33369 -0.2977,0.43497 z"
         sodipodi:nodetypes="cccccccccccccsscccccccccccccc" />
      <path
         style="opacity:1;fill:#000000;stroke-width:2.3;stroke-dasharray:none"
         id="path1568"
         d="m 142.04357,158.97 c 0.27019,0.0125 0.53805,0.0808 0.80068,0.14385 0.29557,0.0571 0.57503,0.16348 0.84912,0.28487 0.31906,0.13867 0.61238,0.32599 0.91353,0.49817 0.40181,0.23454 0.82566,0.42972 1.24673,0.62696 0.48397,0.2275 0.95445,0.47893 1.41242,0.7547 0.28409,0.15812 0.52373,0.37059 0.73742,0.61256 0.146,0.15312 0.18542,0.33816 0.21387,0.54018 0.0238,0.20164 0.0261,0.40371 7.9e-4,0.60493 -0.0261,0.17242 -0.10849,0.31167 -0.20605,0.4517 -0.13198,0.21468 -0.28887,0.41117 -0.46551,0.59044 -0.15442,0.15064 -0.32432,0.28996 -0.51777,0.38722 -0.16441,0.0791 -0.33125,0.15152 -0.49288,0.23633 -0.018,0.008 -0.036,0.0159 -0.054,0.0239 -0.25597,0.11504 -0.0933,0.47704 0.16269,0.362 v 0 c 0.0252,-0.0115 0.0505,-0.023 0.0757,-0.0344 0.16106,-0.0845 0.32788,-0.15565 0.49132,-0.23551 0.22862,-0.1212 0.43601,-0.27805 0.61852,-0.46183 0.19098,-0.19617 0.36446,-0.40788 0.50791,-0.64174 0.13375,-0.19324 0.23987,-0.39324 0.27392,-0.62938 0.0288,-0.23633 0.0273,-0.47377 -0.002,-0.71033 -0.0409,-0.2771 -0.11252,-0.53628 -0.30941,-0.74639 -0.24079,-0.27175 -0.51155,-0.51054 -0.82997,-0.68962 -0.46982,-0.28277 -0.95242,-0.54076 -1.44884,-0.77411 -0.4114,-0.19252 -0.82552,-0.38306 -1.21807,-0.61209 -0.31301,-0.17885 -0.6181,-0.37305 -0.94996,-0.51658 -0.29612,-0.13077 -0.59837,-0.2452 -0.91723,-0.30787 -0.29298,-0.07 -0.59118,-0.1445 -0.89308,-0.15476 -0.27029,0.17777 -0.3638,0.36794 -0.3638,0.36794 z"
         sodipodi:nodetypes="ccccccccccccccssccccccccccccccc" />
      <path
         style="opacity:1;fill:#000000;stroke-width:2.3;stroke-dasharray:none"
         id="path1569"
         d="m 141.45279,163.91776 c 0.23164,-10e-4 0.45635,0.0759 0.67851,0.13385 0.31867,0.0674 0.62919,0.15815 0.93312,0.27446 0.3785,0.15093 0.75329,0.30887 1.11846,0.48983 0.45787,0.2146 0.88802,0.48169 1.3106,0.75792 0.39488,0.26367 0.76371,0.56243 1.13317,0.85977 0.24824,0.20351 0.47194,0.43342 0.61508,0.72267 0.0914,0.17581 0.14924,0.36278 0.17149,0.55906 0.0128,0.18957 0.0241,0.37958 -0.0148,0.56646 -0.0403,0.17412 -0.13446,0.30307 -0.26179,0.42281 -0.1528,0.1344 -0.32444,0.2459 -0.49092,0.36264 -0.1423,0.0851 -0.27537,0.19075 -0.43152,0.24974 -0.0766,0.0289 -0.14897,0.0676 -0.22287,0.10262 -0.2535,0.12039 -0.0832,0.47889 0.17026,0.35849 v 0 c 0.066,-0.0314 0.13049,-0.0662 0.19893,-0.0922 0.18348,-0.0748 0.34691,-0.18691 0.51305,-0.29371 0.1827,-0.12812 0.37093,-0.2508 0.53695,-0.40037 0.18491,-0.17813 0.32098,-0.37994 0.37753,-0.63452 0.0421,-0.22829 0.0402,-0.45803 0.0192,-0.68903 -0.03,-0.24222 -0.0982,-0.47455 -0.21175,-0.69181 -0.17443,-0.33669 -0.42423,-0.61495 -0.72008,-0.85206 -0.37965,-0.30551 -0.75891,-0.61219 -1.1649,-0.88281 -0.43586,-0.2847 -0.87957,-0.55983 -1.35161,-0.78136 -0.37656,-0.1862 -0.76262,-0.34968 -1.15291,-0.50489 -0.31759,-0.12111 -0.64169,-0.21743 -0.97455,-0.28774 -0.25503,-0.0665 -0.51252,-0.15093 -0.7787,-0.1467 -0.28063,0 -0.28063,0.39687 0,0.39687 z" />
      <path
         style="opacity:1;fill:#000000;stroke-width:2.3;stroke-dasharray:none"
         id="path1570"
         d="m 141.16813,168.42974 c 0.29539,0.0593 0.58646,0.14439 0.87312,0.23701 0.31479,0.0927 0.61347,0.22857 0.91914,0.34594 0.30992,0.12032 0.62351,0.23066 0.92591,0.36919 0.23359,0.12012 0.46859,0.23729 0.6902,0.37862 0.2474,0.153 0.49285,0.30858 0.73435,0.47086 0.23832,0.16509 0.45777,0.35469 0.66941,0.55223 0.18037,0.19112 0.35866,0.38404 0.53596,0.57804 0.18746,0.19825 0.37197,0.4 0.53942,0.61562 0.14017,0.137 0.18317,0.31238 0.22802,0.49622 0.0523,0.22041 0.0489,0.44145 0.0301,0.665 -0.0246,0.15696 -0.1409,0.27295 -0.25125,0.37885 -0.17895,0.16102 -0.3817,0.29496 -0.58325,0.426 -0.15657,0.093 -0.32243,0.16811 -0.4849,0.24978 -0.0953,0.0601 -0.19801,0.10583 -0.29633,0.16029 -0.24472,0.13735 -0.0505,0.48344 0.19424,0.34609 v 0 c 0.0924,-0.0529 0.19132,-0.0934 0.28068,-0.15195 0.17535,-0.0886 0.35495,-0.1692 0.52302,-0.27172 0.22307,-0.1457 0.44759,-0.29406 0.64406,-0.47478 0.17805,-0.17658 0.34062,-0.37061 0.36923,-0.6296 0.022,-0.26628 0.0221,-0.53075 -0.0402,-0.79276 -0.0583,-0.23518 -0.1259,-0.46723 -0.30042,-0.64545 -0.17459,-0.22317 -0.36427,-0.43404 -0.55945,-0.63933 -0.18442,-0.20178 -0.36959,-0.40272 -0.55822,-0.60053 -0.22716,-0.21174 -0.46284,-0.41481 -0.7188,-0.59144 -0.24432,-0.16408 -0.49257,-0.32157 -0.74278,-0.47637 -0.23735,-0.15039 -0.48759,-0.27747 -0.738,-0.40459 -0.31013,-0.14164 -0.63096,-0.2561 -0.94889,-0.37883 -0.31249,-0.11968 -0.61771,-0.25873 -0.93953,-0.35314 -0.31032,-0.0997 -0.62513,-0.19288 -0.94561,-0.25305 -0.27846,-0.0348 -0.32769,0.359 -0.0492,0.3938 z" />
      <path
         style="opacity:1;fill:#000000;stroke-width:2.3;stroke-dasharray:none"
         id="path1571"
         d="m 140.75809,173.0798 c 0.22375,0.04 0.44502,0.0933 0.66507,0.15008 0.28468,0.0642 0.56409,0.14921 0.84898,0.21226 0.26655,0.0553 0.51619,0.16336 0.76852,0.2618 0.27699,0.11005 0.54716,0.23655 0.81226,0.37258 0.28229,0.16224 0.54884,0.34996 0.81847,0.53208 0.23915,0.15458 0.4367,0.35795 0.63148,0.56305 0.16927,0.1848 0.30658,0.39429 0.44162,0.60445 0.12989,0.21357 0.23925,0.43564 0.31672,0.67324 0.097,0.25956 0.13787,0.53171 0.16386,0.80598 0.002,0.18764 0.045,0.38403 -0.007,0.56778 -0.0281,0.12845 -0.10549,0.22163 -0.20454,0.30354 -0.0931,0.0978 -0.20705,0.16129 -0.32596,0.2207 -0.12488,0.0513 -0.25063,0.1004 -0.37522,0.15258 -0.0781,0.0305 -0.0394,0.0169 -0.11586,0.0412 -0.26688,0.0868 -0.14413,0.4642 0.12274,0.37741 v 0 c 0.1016,-0.0335 0.0524,-0.0157 0.14758,-0.053 0.13196,-0.0564 0.26637,-0.1064 0.39812,-0.16313 0.1483,-0.0741 0.29028,-0.15665 0.4082,-0.27555 0.15735,-0.13954 0.28431,-0.29999 0.33065,-0.51028 0.0514,-0.23071 0.0332,-0.4645 0.0162,-0.69896 -0.0292,-0.30359 -0.0759,-0.605 -0.18205,-0.8926 -0.0896,-0.26878 -0.211,-0.52216 -0.35979,-0.76355 -0.14865,-0.231 -0.30071,-0.46067 -0.48769,-0.66312 -0.2146,-0.22586 -0.43411,-0.44801 -0.6971,-0.61861 -0.2828,-0.19098 -0.56227,-0.38809 -0.85947,-0.55632 -0.27715,-0.14209 -0.55958,-0.27427 -0.84916,-0.38919 -0.27146,-0.10588 -0.54061,-0.22047 -0.82741,-0.27966 -0.28046,-0.0614 -0.55508,-0.14655 -0.83538,-0.209 -0.22709,-0.0583 -0.45533,-0.11352 -0.68618,-0.15491 -0.27518,-0.055 -0.35301,0.33413 -0.0778,0.38917 z" />
      <path
         style="opacity:1;fill:#000000;stroke-width:2.3;stroke-dasharray:none"
         id="path1572"
         d="m 140.34508,177.7272 c 0.14088,-0.003 0.27968,-0.003 0.41897,0.0188 0.17034,0.0262 0.33649,0.0736 0.50274,0.1181 0.2041,0.0703 0.40645,0.14604 0.60808,0.22336 0.21878,0.0778 0.42589,0.17988 0.63238,0.2849 0.249,0.10942 0.4884,0.23674 0.72186,0.37577 0.27716,0.15899 0.55014,0.32421 0.81147,0.50819 0.23594,0.16542 0.47295,0.32724 0.68547,0.52227 0.18403,0.1725 0.35586,0.35935 0.50195,0.56514 0.15964,0.21502 0.30448,0.43737 0.43336,0.67188 0.0766,0.15283 0.14346,0.31003 0.17892,0.47755 0.0375,0.13909 -0.0315,0.23046 -0.10069,0.345 -0.11627,0.16913 -0.24172,0.33217 -0.36717,0.49469 -0.0877,0.10914 -0.19042,0.20656 -0.29331,0.30144 -0.20558,0.19102 0.0646,0.48176 0.27016,0.29073 v 0 c 0.11821,-0.1105 0.2372,-0.22237 0.3374,-0.34977 0.13468,-0.17472 0.27003,-0.34958 0.39308,-0.53265 0.11916,-0.19911 0.20951,-0.39678 0.14829,-0.63405 -0.0456,-0.20433 -0.12278,-0.39811 -0.21888,-0.58411 -0.13656,-0.24843 -0.29,-0.48422 -0.45877,-0.71217 -0.16415,-0.22662 -0.35078,-0.43645 -0.55642,-0.62648 -0.22562,-0.20591 -0.47455,-0.3799 -0.72511,-0.55413 -0.26975,-0.18946 -0.55072,-0.36082 -0.83675,-0.52456 -0.24105,-0.14343 -0.48789,-0.27567 -0.74498,-0.38851 -0.21881,-0.11124 -0.43868,-0.2187 -0.67021,-0.30171 -0.21462,-0.0822 -0.42983,-0.16342 -0.64778,-0.23623 -0.18045,-0.0481 -0.3609,-0.099 -0.54585,-0.12708 -0.159,-0.0237 -0.31757,-0.0277 -0.47821,-0.0232 -0.28063,0 -0.28063,0.39687 0,0.39687 z" />
      <path
         style="opacity:1;fill:#000000;stroke-width:2.3;stroke-dasharray:none"
         id="path1573"
         d="m 139.98846,182.38902 c 0.14756,0.0256 0.29552,0.0494 0.44254,0.078 0.15932,0.0449 0.32057,0.082 0.48117,0.12181 0.15726,0.0336 0.30364,0.0952 0.45032,0.15896 0.21688,0.1017 0.42376,0.22278 0.62877,0.34629 0.25993,0.1587 0.52069,0.31656 0.77784,0.47978 0.22751,0.14243 0.44802,0.29639 0.66178,0.45872 0.19905,0.15712 0.40184,0.3093 0.60237,0.46453 0.22187,0.16682 0.43465,0.34404 0.64151,0.52903 0.14962,0.1335 0.29246,0.27463 0.42425,0.42578 0.0634,0.0752 0.10447,0.16225 0.14137,0.25248 0.023,0.0727 0.0426,0.15181 0.0326,0.22836 -0.0145,0.10921 -0.0518,0.21787 -0.0972,0.31815 -0.0555,0.0899 -0.12128,0.173 -0.18157,0.25969 -0.0706,0.0897 -0.15309,0.16852 -0.24437,0.2367 -0.0972,0.0731 -0.20638,0.1108 -0.32059,0.14572 -0.10045,0.0327 -0.20473,0.0465 -0.30964,0.0537 -0.11327,0.006 -0.22675,0.005 -0.34012,0.004 -0.10819,-0.002 -0.21652,0.008 -0.32317,-0.0124 -0.0874,-0.0176 -0.17175,-0.0491 -0.25584,-0.0787 -0.0885,-0.0429 -0.17015,-0.0979 -0.2545,-0.14816 -0.0952,-0.0644 -0.17329,-0.14957 -0.25967,-0.22462 -0.0926,-0.0792 -0.18074,-0.16326 -0.2774,-0.23775 -0.065,-0.048 -0.0331,-0.0241 -0.0956,-0.0717 -0.22325,-0.17005 -0.46373,0.14567 -0.24049,0.31571 v 0 c 0.0658,0.0501 0.0338,0.0261 0.0959,0.072 0.0914,0.0679 0.17074,0.15024 0.25856,0.22249 0.10472,0.0891 0.1969,0.19388 0.31607,0.26517 0.10692,0.0632 0.20977,0.13418 0.32543,0.18129 0.10396,0.0453 0.20865,0.0741 0.31707,0.0949 0.13037,0.0228 0.26121,0.0198 0.3932,0.0187 0.12284,1.2e-4 0.24579,0.001 0.3685,-0.005 0.13474,-0.01 0.26865,-0.0286 0.39775,-0.0701 0.15903,-0.0487 0.31016,-0.10869 0.44483,-0.20942 0.12329,-0.095 0.23737,-0.20152 0.33056,-0.32693 0.0742,-0.1084 0.15996,-0.20988 0.21935,-0.32783 0.0607,-0.14418 0.11548,-0.29485 0.12908,-0.45164 0.005,-0.13811 -0.0111,-0.27478 -0.0622,-0.40442 -0.0542,-0.12935 -0.11671,-0.25428 -0.20901,-0.36142 -0.14274,-0.16325 -0.29677,-0.31634 -0.45868,-0.46062 -0.21389,-0.19117 -0.43387,-0.37441 -0.6631,-0.547 -0.20162,-0.15603 -0.40547,-0.30901 -0.60555,-0.46697 -0.22284,-0.16862 -0.45201,-0.32944 -0.68897,-0.47759 -0.25986,-0.16467 -0.52302,-0.3244 -0.78564,-0.48459 -0.21999,-0.13246 -0.4422,-0.26208 -0.67534,-0.37032 -0.16693,-0.0725 -0.33464,-0.14086 -0.51313,-0.18021 -0.16725,-0.0413 -0.33488,-0.0809 -0.50115,-0.12621 -0.14627,-0.0281 -0.29327,-0.0526 -0.4401,-0.0776 -0.27518,-0.055 -0.35302,0.33413 -0.0778,0.38917 z"
         sodipodi:nodetypes="cccccccccccccccccccccccsssccccccccccccccccccccccccc" />
      <path
         style="opacity:1;fill:#000000;stroke-width:2.3;stroke-dasharray:none"
         id="path1574"
         d="m 142.10437,186.28649 c -0.0164,-0.0327 -0.0434,-0.0585 -0.0685,-0.0846 -0.0233,-0.024 -0.0526,-0.0404 -0.0771,-0.0629 -0.0125,-0.0117 -0.0243,-0.0239 -0.0357,-0.0368 -0.0624,-0.0697 -0.16096,0.0185 -0.0986,0.0882 v 0 c 0.0147,0.0163 0.0298,0.0323 0.0461,0.0471 0.0226,0.0199 0.0475,0.0367 0.0703,0.0564 0.01,0.0102 0.0196,0.0209 0.0294,0.0313 0.002,0.002 0.008,0.0103 0.0113,0.0104 0.0347,0.0868 0.15757,0.0377 0.12283,-0.0491 z" />
      <path
         style="opacity:1;fill:#000000;stroke-width:2.3;stroke-dasharray:none"
         id="path1575"
         d="m 142.05806,186.27055 c -2.4e-4,-2.4e-4 -0.001,-10e-4 -8e-4,-8e-4 8e-4,8e-4 0.002,0.002 0.002,0.002 0.004,0.004 0.003,0.003 8e-4,5.3e-4 -5.3e-4,-8e-4 -0.001,-0.002 -0.002,-0.003 2.2e-4,2.6e-4 7.9e-4,0.001 5.3e-4,7.9e-4 -0.004,-0.005 -0.008,-0.01 -0.0126,-0.0145 -0.002,-0.003 -0.004,-0.003 -0.006,-0.006 -0.004,-0.005 -0.009,-0.01 -0.0135,-0.0138 -2.7e-4,-2.6e-4 -5.3e-4,-5.3e-4 -8e-4,-0.001 -0.001,-0.001 -0.002,-0.002 -0.004,-0.003 -5.3e-4,-5.3e-4 -0.001,-0.001 -0.002,-0.002 -1.1e-4,-1.3e-4 2.6e-4,2.4e-4 2.7e-4,2.7e-4 -0.001,-0.002 0.001,0.002 7.9e-4,7.9e-4 -2.6e-4,-7.9e-4 -0.001,-0.002 -0.002,-0.002 -7.9e-4,-10e-4 -0.002,-0.003 -0.003,-0.004 -0.004,-0.006 -0.004,-0.005 -0.008,-0.0109 -0.006,-0.009 -0.0139,-0.0163 -0.0209,-0.0244 -0.005,-0.005 -0.009,-0.011 -0.0141,-0.0166 -0.007,-0.008 -0.0147,-0.0165 -0.0226,-0.0242 -0.006,-0.006 -0.0113,-0.0112 -0.0167,-0.0169 -0.006,-0.006 -0.0119,-0.0123 -0.0182,-0.0182 -5.3e-4,-5.3e-4 -10e-4,-7.9e-4 -10e-4,-0.001 -5.3e-4,-5.3e-4 -0.001,-8e-4 -0.001,-0.001 -1.7e-4,-1.7e-4 2.6e-4,2.7e-4 5.2e-4,5.3e-4 0.002,0.002 0.003,0.003 3e-5,-1.9e-4 -0.0598,-0.072 -0.16154,0.0125 -0.10178,0.0845 v 0 c 0.004,0.005 0.009,0.0102 0.0138,0.0147 0.004,0.004 0.009,0.008 0.0123,0.0124 0.007,0.007 0.0133,0.0136 0.02,0.0203 0.005,0.005 0.009,0.009 0.0134,0.0142 0.005,0.006 0.0106,0.0127 0.016,0.0189 0.005,0.006 0.0104,0.0113 0.0151,0.0173 0.006,0.008 0.011,0.0167 0.0177,0.0241 0.004,0.004 0.009,0.009 0.0111,0.0115 0.003,0.003 0.003,0.003 0.006,0.006 1e-4,9e-5 5.3e-4,2.6e-4 2.6e-4,2.6e-4 -2.6e-4,-2.6e-4 -5.3e-4,-5.3e-4 -7.9e-4,-0.001 -2.6e-4,-2.6e-4 7.9e-4,0.001 0.001,0.001 0.004,0.005 0.009,0.01 0.0132,0.0144 2.7e-4,2.6e-4 0.001,0.001 8e-4,7.9e-4 -0.001,-0.002 -0.006,-0.008 -5.3e-4,-5.3e-4 0.004,0.005 0.007,0.01 0.0112,0.0136 0.0661,0.0661 0.15969,-0.0274 0.0935,-0.0935 z" />
      <path
         style="opacity:1;fill:#000000;stroke-width:2.3;stroke-dasharray:none"
         id="path1576"
         d="m 142.1107,186.33147 c -0.004,-0.007 -0.009,-0.0126 -0.013,-0.0193 -0.004,-0.007 -0.009,-0.0142 -0.0133,-0.0211 -10e-4,-0.002 -0.002,-0.003 -0.004,-0.005 -0.0563,-0.0747 -0.16194,0.005 -0.10561,0.0797 v 0 c -2.7e-4,-5.3e-4 -8e-4,-0.001 -0.001,-0.002 0.004,0.006 0.007,0.0111 0.0106,0.0168 0.003,0.006 0.007,0.0111 0.0108,0.0165 5.3e-4,7.9e-4 0.001,0.002 0.002,0.002 8e-4,0.001 0.002,0.004 0.002,0.003 -1.3e-4,-0.001 -0.001,-0.002 -0.002,-0.003 0.0481,0.0802 0.16157,0.0122 0.11344,-0.0681 z" />
      <path
         style="opacity:1;fill:#000000;stroke-width:2.3;stroke-dasharray:none"
         id="path1577"
         d="m 142.09037,186.30747 c -0.004,-0.004 -0.008,-0.008 -0.0117,-0.012 -8e-4,-0.001 -0.002,-0.002 -0.003,-0.003 -0.0637,-0.0685 -0.16057,0.0217 -0.0968,0.0901 v 0 c 7.9e-4,0.001 0.002,0.002 0.003,0.003 0.005,0.005 0.0124,0.0132 0.015,0.0154 0.0661,0.0661 0.15969,-0.0274 0.0935,-0.0935 z" />
      <path
         style="opacity:1;fill:#000000;stroke-width:2.3;stroke-dasharray:none"
         id="path1580"
         d="m 143.55651,136.01132 c 0.008,0.008 -7.9e-4,-0.001 0.0107,0.0145 8e-4,10e-4 -10e-4,-0.002 -0.002,-0.003 -0.002,-0.003 -0.004,-0.006 -0.006,-0.009 -0.01,-0.0129 -0.0112,-0.0121 -0.0255,-0.0221 -0.0163,-0.006 -0.0239,-0.0108 -0.0429,-0.007 -0.01,0.002 -0.0186,0.006 -0.0276,0.0104 -0.002,0.001 -0.004,0.003 -0.006,0.004 -0.007,0.006 -0.0134,0.0132 -0.009,0.008 -0.0112,0.0132 -0.0101,0.0121 -0.0174,0.0257 -7.9e-4,0.001 0.001,-0.003 0.002,-0.004 -5.3e-4,0.001 -10e-4,0.002 -0.002,0.003 -0.001,0.002 -0.002,0.005 -0.003,0.007 0.006,-0.0117 7.9e-4,-0.002 5.3e-4,-0.002 -0.003,0.006 -0.004,0.009 -0.003,0.006 0.004,-0.007 -0.001,0.001 -5.3e-4,0.001 2.6e-4,-2.6e-4 0.005,-0.008 2.6e-4,-7.9e-4 -0.002,0.003 -0.006,0.0107 -0.002,0.003 -0.004,0.006 -0.006,0.0125 -0.009,0.019 -5.3e-4,0.001 0.002,-0.005 10e-4,-0.004 -0.003,0.008 -0.003,0.008 -0.006,0.0185 -0.002,0.01 -0.002,0.0197 -0.003,0.0296 -5.3e-4,0.008 -0.002,0.016 -0.003,0.024 -5.3e-4,0.005 -0.001,0.01 -0.002,0.0149 -1.1e-4,5.3e-4 1.9e-4,-0.001 2.7e-4,-0.002 -5.3e-4,0.002 -0.003,0.009 -0.004,0.0155 -0.001,0.006 -0.003,0.0113 -0.004,0.0143 0.002,-0.007 -0.004,0.011 0.001,-0.004 2.1e-4,-5.3e-4 -5.3e-4,0.001 -8e-4,0.002 -2.3e-4,2.6e-4 5.3e-4,-7.9e-4 5.3e-4,-0.001 -7.9e-4,0.001 -0.002,0.003 -0.002,0.004 8e-4,-0.001 0.002,-0.002 0.002,-0.004 2.6e-4,-0.001 -0.002,0.002 -0.002,0.003 -0.003,0.005 -0.005,0.009 -0.008,0.014 1.9e-4,-5.3e-4 7.9e-4,-0.002 5.3e-4,-0.001 -0.006,0.0114 -0.009,0.022 -0.0116,0.0346 -10e-4,0.008 -0.002,0.0167 -0.002,0.025 -2.2e-4,0.008 2.7e-4,0.0168 0.002,0.0251 0.004,0.0187 0.0131,0.0353 0.0282,0.0473 0.0101,0.008 0.0144,0.009 0.0263,0.0135 0.0151,0.005 0.0307,0.004 0.0462,0.003 0.0156,-0.002 0.0299,-0.007 0.0435,-0.0149 0.0104,-0.006 0.0196,-0.0133 0.0287,-0.0209 0.005,-0.005 0.003,-0.003 0.008,-0.007 0.0668,-0.0655 -0.0259,-0.15993 -0.0927,-0.0944 v 0 c -0.001,0.001 -7.9e-4,8e-4 -0.001,0.002 -0.003,0.002 -0.004,0.004 -0.007,0.006 -7.9e-4,5.3e-4 -0.003,0.002 -0.002,10e-4 0.001,-1.2e-4 0.002,-10e-4 0.004,-0.002 0.004,-0.001 0.003,-8e-4 0.006,-0.001 -7.9e-4,9e-5 -0.002,1.6e-4 -0.002,2.6e-4 -2.4e-4,3e-5 -0.001,1e-4 -7.9e-4,1.3e-4 0.003,5.3e-4 0.007,5.3e-4 0.01,0.002 0.003,0.001 0.006,0.002 0.009,0.004 0.0149,0.008 0.0247,0.0228 0.0276,0.0395 7.9e-4,0.0136 -4e-5,7.9e-4 2.2e-4,-0.003 0,-5.3e-4 2.5e-4,-0.006 -1.9e-4,-0.004 -8e-4,0.003 -0.007,0.0161 -8e-4,0.003 5.3e-4,-8e-4 0.002,-0.004 10e-4,-0.003 -8e-4,10e-4 -10e-4,0.002 -0.002,0.004 -2.6e-4,5.3e-4 -0.001,0.002 -0.001,0.002 0.002,-0.004 0.005,-0.007 0.007,-0.0108 0.004,-0.007 0.009,-0.0161 0.0113,-0.0247 0.002,-0.007 0.004,-0.0133 0.006,-0.0201 0.002,-0.007 0.004,-0.0127 0.005,-0.0197 0.002,-0.009 0.004,-0.0184 0.005,-0.0277 0.001,-0.008 0.002,-0.0169 0.003,-0.0255 5.3e-4,-0.006 7.9e-4,-0.007 0.001,-0.0126 6e-5,-8e-4 5.3e-4,-0.004 1.9e-4,-0.004 -8e-5,-2e-4 -1.4e-4,5.3e-4 -2.1e-4,5.3e-4 -5.3e-4,0.001 -0.007,0.0199 -1.9e-4,0.002 5.3e-4,-0.001 -0.004,0.01 -0.004,0.009 0.002,-0.004 0.005,-0.008 0.0106,-0.0185 0.007,-0.0151 -0.008,0.0161 0.004,-0.008 8e-4,-0.001 -0.002,0.003 -0.002,0.004 10e-4,-0.002 0.003,-0.005 0.004,-0.007 7.9e-4,-0.002 -0.002,0.003 -0.003,0.005 -2.7e-4,5.3e-4 -0.002,0.002 -10e-4,0.002 0.009,-0.0137 -0.002,0.003 -0.005,0.005 0.01,-0.0101 -0.005,0.005 -0.008,0.006 -0.0218,0.009 -0.0255,0.012 -0.0481,0.008 -0.005,-10e-4 -0.01,-0.004 -0.0148,-0.006 -0.004,-0.003 -0.009,-0.006 -0.013,-0.01 -0.006,-0.005 -0.007,-0.009 -0.0109,-0.0149 -1e-4,-1.6e-4 1.7e-4,2.7e-4 2.6e-4,5.3e-4 0.003,0.005 0.006,0.01 0.009,0.0143 0.002,0.002 0.004,0.004 0.006,0.007 0.0661,0.0661 0.15969,-0.0274 0.0935,-0.0935 z" />
      <path
         style="opacity:1;fill:#000000;stroke-width:2.3;stroke-dasharray:none"
         id="path1581"
         d="m 143.45018,136.20342 c 7.9e-4,-0.002 0.002,-0.003 0.003,-0.005 2.3e-4,-5.3e-4 -5.3e-4,7.9e-4 -8e-4,0.001 -2.6e-4,5.3e-4 -5.2e-4,7.9e-4 -7.9e-4,0.001 -0.002,0.003 -0.004,0.007 -0.006,0.0105 -0.002,0.004 -0.004,0.008 -0.006,0.0116 -4e-5,7e-5 4e-5,-1.5e-4 8e-5,-2.2e-4 2.2e-4,-5.3e-4 5.3e-4,-7.9e-4 7.9e-4,-10e-4 -0.004,0.006 -0.003,0.004 -0.006,0.0118 -2.6e-4,8e-4 -0.001,0.003 -0.001,0.002 5.3e-4,-10e-4 0.001,-0.002 0.001,-0.003 1.6e-4,-5.3e-4 -5.3e-4,8e-4 -5.3e-4,0.001 -2.3e-4,5.3e-4 -5.3e-4,8e-4 -8e-4,0.001 1.8e-4,-2.7e-4 8e-4,-0.001 5.3e-4,-0.001 -0.002,0.003 -0.001,0.002 -0.003,0.005 -8e-5,1.4e-4 2.6e-4,-5.3e-4 2e-4,-5.3e-4 -5.3e-4,0.001 -0.002,0.004 -0.002,0.003 7.9e-4,-7.9e-4 0.001,-0.002 0.002,-0.003 -0.002,0.003 -0.001,0.002 -0.004,0.006 -5.3e-4,0.001 0.001,-0.002 0.002,-0.003 2.6e-4,-8e-4 -0.002,0.003 -10e-4,0.002 0.009,-0.014 0.003,-0.005 0.002,-0.004 0.001,-0.002 0.003,-0.004 0.004,-0.006 8e-4,-0.001 -0.002,0.002 -0.002,0.003 -0.002,0.002 -0.003,0.005 -0.005,0.007 -0.049,0.0797 0.0637,0.14898 0.11268,0.0693 v 0 c -10e-4,0.001 -0.0136,0.0183 -5.3e-4,0.001 -0.002,0.003 -10e-4,0.002 0.004,-0.006 1.4e-4,-2.1e-4 -5.3e-4,7.9e-4 -2.7e-4,5.3e-4 0.001,-0.002 0.002,-0.003 0.003,-0.005 5.3e-4,-7.9e-4 -0.001,0.002 -0.002,0.003 -7e-5,1.2e-4 1.3e-4,-2.4e-4 2e-4,-2.6e-4 0.003,-0.005 0.004,-0.007 0.006,-0.0112 0.001,-0.003 0.003,-0.005 0.004,-0.008 8e-5,-1.6e-4 2.7e-4,-7.9e-4 2.1e-4,-5.3e-4 -7.9e-4,0.002 -0.002,0.003 -0.002,0.005 -2.5e-4,5.3e-4 -5.3e-4,7.9e-4 -7.9e-4,0.001 0.003,-0.006 0.007,-0.0112 0.01,-0.0169 0.003,-0.005 0.006,-0.009 0.008,-0.0141 0.0418,-0.0837 -0.0765,-0.14283 -0.11832,-0.0592 z" />
      <path
         style="opacity:1;fill:#000000;stroke-width:2.3;stroke-dasharray:none"
         id="path1582"
         d="m 142.75237,145.3255 c -0.0115,-0.002 -0.0235,-0.003 -0.035,-5.3e-4 -0.005,0.001 -0.01,0.003 -0.0148,0.004 -0.0124,0.005 -0.0239,0.0116 -0.0349,0.0191 3e-5,-7e-5 1.8e-4,-2.4e-4 1.1e-4,-2e-4 -0.006,0.004 -0.0123,0.008 -0.0186,0.0116 -0.008,0.005 -0.0157,0.01 -0.0235,0.0145 -0.008,0.005 -0.0152,0.0115 -0.0212,0.0188 -0.004,0.005 -0.007,0.01 -0.005,0.006 -0.0202,0.0285 -0.0201,0.054 -8e-4,0.0854 0.008,0.013 0.0196,0.0173 0.0319,0.0229 0.004,0.002 0.008,0.003 0.0117,0.004 2.7e-4,1.3e-4 -0.001,-5.3e-4 -0.001,-2.6e-4 0.001,5.3e-4 0.004,0.001 0.002,7.9e-4 0.005,0.002 0.001,7.9e-4 0.008,0.004 10e-4,5.3e-4 -0.002,-0.001 -0.003,-0.001 -7.9e-4,-9e-5 0.003,0.002 0.002,0.001 -0.0162,-0.01 0.0335,0.0345 -0.0267,-0.025 0.004,-0.0268 0.006,-0.0539 0.0109,-0.0804 5.3e-4,-0.003 0.004,-0.004 0.007,-0.006 0.007,-0.005 0.014,-0.008 0.0221,-0.01 0.005,-5.3e-4 -2e-5,-2.7e-4 -0.002,-2.7e-4 -5.3e-4,0 -10e-4,10e-6 -0.002,10e-6 -0.004,0 -0.002,-4e-5 0.004,2.2e-4 7.9e-4,4e-5 0.003,2.6e-4 -0.001,-2.4e-4 -0.001,-1.7e-4 -0.002,-2.6e-4 -0.003,-5.3e-4 0.001,2.1e-4 0.002,5.3e-4 0.004,5.3e-4 2.7e-4,5e-5 -7.9e-4,-1.9e-4 -0.001,-2.6e-4 -0.001,-2.7e-4 -0.002,-5.3e-4 -0.003,-8e-4 -0.005,-0.001 -0.009,-0.002 -0.014,-0.002 -0.007,-7.9e-4 -0.0132,-7.9e-4 -0.0199,-7.9e-4 -0.008,-5.3e-4 -0.0159,0.001 -0.0238,0.002 5.3e-4,-2.3e-4 -0.002,-6e-5 -0.002,-6e-5 -0.004,4e-5 -0.007,3e-5 -0.011,3e-5 -0.004,0 -0.008,-1e-5 -0.0125,-1e-5 -0.004,0 -0.009,0 -0.013,0 -0.005,0 -0.009,0 -0.0137,0 -0.005,0 -0.0101,0 -0.0151,0 -0.005,0 -0.0105,0 -0.0157,0 -0.004,0 -0.009,0 -0.0128,0 -0.008,-2.5e-4 -0.0156,5.3e-4 -0.0234,0.002 0.002,-2.7e-4 0.005,-7.9e-4 0.007,-7.9e-4 0.0172,7.9e-4 0.0322,0.003 0.0455,0.0169 0.009,0.009 0.0151,0.0215 0.0192,0.0338 0.005,0.0136 7.9e-4,0.0231 -0.003,0.035 -2.6e-4,8e-4 -5.3e-4,0.001 -7.9e-4,0.002 -8e-4,0.002 -0.002,0.004 0.002,-0.002 2.7e-4,-5.3e-4 0.001,-0.002 0.001,-0.002 -5.3e-4,7.9e-4 -0.001,0.002 -0.002,0.002 -0.003,0.004 0.004,-0.005 0.003,-0.004 -0.004,0.004 -10e-4,0.002 -0.003,0.004 0.002,-0.002 5.2e-4,-5.2e-4 0.006,-0.006 0.008,-0.008 0.0143,-0.0175 0.0197,-0.0275 0.004,-0.008 0.007,-0.0172 0.01,-0.0262 0.001,-0.005 0.003,-0.0109 0.005,-0.0162 5.2e-4,-0.002 0.001,-0.003 0.001,-0.005 0.001,-0.003 0.002,-0.006 0.003,-0.009 10e-4,-0.005 0.002,-0.007 10e-4,-0.004 0.001,-0.002 0.003,-0.009 0.004,-0.01 2.6e-4,-2.3e-4 -2.6e-4,7.9e-4 -2.7e-4,10e-4 0.003,-0.005 0.006,-0.009 0.009,-0.0139 0.004,-0.006 0.008,-0.0116 0.012,-0.0174 0.005,-0.007 0.009,-0.0138 0.0132,-0.0207 5.3e-4,-0.001 0.001,-0.002 0.002,-0.003 0.002,-0.004 0.005,-0.008 0.008,-0.012 2e-4,-2.6e-4 -2.7e-4,5.3e-4 -5.3e-4,7.9e-4 -0.003,0.005 -0.0122,0.01 -0.0165,0.0127 -2.7e-4,2e-4 7.9e-4,-2.2e-4 0.001,-5.3e-4 0.005,-0.003 0.0107,-0.006 0.0161,-0.009 0.0156,-0.0119 0.0238,-0.027 0.0302,-0.0448 0.002,-0.007 0.002,-0.008 0.005,-0.0175 1.8e-4,-8e-4 -2.7e-4,0.002 -5.3e-4,0.002 1.4e-4,-5.3e-4 0.002,-0.007 0.002,-0.006 -5.2e-4,0.002 -0.001,0.003 -0.001,0.005 -6e-5,2.4e-4 1.9e-4,-5.3e-4 2.7e-4,-8e-4 5.3e-4,-0.001 0.001,-0.003 0.002,-0.004 5.3e-4,-0.002 0.001,-0.004 0.002,-0.006 5.3e-4,-0.002 0.001,-0.004 0.001,-0.006 2.2e-4,-0.002 -7.9e-4,0.004 -0.001,0.005 -5e-5,2.1e-4 1.5e-4,-5.3e-4 2.1e-4,-5.3e-4 5.3e-4,-0.001 7.9e-4,-0.003 0.001,-0.004 0.001,-0.005 0.001,-0.006 0.002,-0.0109 -5.2e-4,0.004 0.002,-0.0125 10e-4,-0.009 -5.3e-4,0.002 -5.3e-4,0.004 -7.9e-4,0.006 -4e-5,2.6e-4 -2e-4,10e-4 -1.6e-4,7.9e-4 0.002,-0.0138 0.002,-0.007 0.002,-0.0191 -5e-5,0.004 -2.4e-4,-0.0118 -5.3e-4,-0.009 -8e-4,0.008 0.004,0.0184 -0.002,0.0238 -0.0402,0.0369 -0.0767,0.0735 -0.11608,0.0227 0.01,0.0136 0.0226,0.0245 0.0378,0.0314 0.003,0.002 0.007,0.003 0.01,0.004 0.0279,0.0102 0.056,0.009 0.0797,-0.0137 0.009,-0.009 0.0124,-0.0221 0.0186,-0.0332 0.003,-0.0205 0.003,-0.0112 10e-4,-0.0308 -1.8e-4,-0.002 -5.3e-4,-0.006 -10e-4,-0.008 -0.004,-0.009 -0.008,-0.0181 -0.0122,-0.0272 -0.0394,0.01 -0.0794,0.0165 -0.11807,0.0287 -0.003,8e-4 -7.9e-4,0.006 -10e-4,0.009 -0.001,0.0138 0.002,0.023 0.007,0.0357 0.002,0.004 0.0133,0.0225 0.006,0.0106 0.0451,0.082 0.16099,0.0182 0.11593,-0.0637 v 0 c -0.003,-0.006 -0.01,-0.0164 -5.3e-4,1.7e-4 10e-4,0.004 0.002,0.007 0.003,0.0106 0.001,0.004 7.9e-4,0.009 0.001,0.0131 0.002,0.0421 -0.1198,0.0953 -0.11882,0.0354 -0.0146,-0.0328 -0.0102,-0.0167 -0.0123,-0.0292 -2.4e-4,-0.001 5.3e-4,0.006 5.3e-4,0.004 2.6e-4,-0.0184 -0.002,-8e-4 0.002,-0.0212 0.006,-0.01 0.009,-0.0217 0.0176,-0.0293 0.0175,-0.0155 0.0386,-0.0208 0.0601,-0.0147 0.001,2.7e-4 -0.008,-0.002 -0.003,-0.001 0.007,0.003 0.0132,0.008 0.0174,0.0151 -0.01,-0.0142 -0.0234,-0.0345 -0.0441,-0.0307 -0.0832,0.0152 -0.0747,0.0275 -0.0791,0.0723 -1.3e-4,0.001 -1.9e-4,-0.005 -1.7e-4,-0.004 7.9e-4,-0.0134 -5.3e-4,0.004 0.002,-0.0134 1.8e-4,-0.001 -7.9e-4,0.003 -0.001,0.004 -5.3e-4,0.003 -0.001,0.006 -0.002,0.01 -10e-5,5.3e-4 7.9e-4,-0.004 2.6e-4,-0.002 5.3e-4,-0.002 2.7e-4,-0.002 10e-4,-0.004 8e-5,-2.7e-4 2.6e-4,-0.001 2.6e-4,-8e-4 -7.9e-4,0.003 -0.005,0.0168 -0.002,0.009 2.5e-4,-7.9e-4 5.3e-4,-0.002 8e-4,-0.002 9e-5,-2.6e-4 5.3e-4,-10e-4 2.6e-4,-7.9e-4 -0.002,0.005 -0.003,0.009 -0.004,0.0138 -5.3e-4,0.002 -0.001,0.004 -0.002,0.006 -1.4e-4,5.3e-4 5.3e-4,-0.002 5.3e-4,-0.002 -5.3e-4,0.002 -0.002,0.004 -0.002,0.007 -2.5e-4,0.001 5.3e-4,-0.002 0.001,-0.003 2.7e-4,-7.9e-4 5.3e-4,-0.002 0.001,-0.002 8e-5,-1.9e-4 2.7e-4,-7.9e-4 2.7e-4,-5.3e-4 -5.3e-4,0.001 -0.002,0.004 -0.001,0.003 0.001,-0.002 0.002,-0.005 0.004,-0.007 0.005,-0.008 0.007,-0.008 0.0139,-0.0142 0.004,-0.002 0.008,-0.004 0.0117,-0.006 10e-4,-8e-4 -0.003,0.001 -0.004,0.002 -0.0139,0.007 -0.02,0.0109 -0.0303,0.0221 -0.002,0.002 -0.003,0.004 -0.005,0.005 -0.006,0.008 -0.0119,0.0172 -0.0172,0.0262 -0.003,0.005 -0.006,0.01 -0.009,0.0146 -0.004,0.006 -0.009,0.0124 -0.0131,0.0189 -0.006,0.008 -0.0112,0.017 -0.016,0.0259 -0.004,0.009 -0.008,0.0177 -0.0113,0.027 -0.002,0.006 -0.004,0.0125 -0.006,0.0187 -0.003,0.008 -0.005,0.0151 -0.007,0.0229 -2.6e-4,0.001 -0.001,0.002 -7.9e-4,0.003 2.6e-4,7.9e-4 5.3e-4,-0.002 0.001,-0.003 3e-5,-8e-5 1.8e-4,-2.6e-4 1.5e-4,-2.3e-4 -2e-4,5.3e-4 -5.3e-4,0.001 -7.9e-4,0.002 -5e-5,2.1e-4 0.002,-0.005 -5.3e-4,0.001 0.002,-0.004 0.002,-0.003 0.004,-0.005 2.5e-4,-2.6e-4 -0.001,0.001 -7.9e-4,0.001 0.003,-0.003 0.001,-0.002 2.6e-4,-2.7e-4 5.3e-4,-5.3e-4 0.002,-0.002 0.002,-0.002 -0.006,0.005 -0.011,0.0104 -0.0155,0.0166 -0.007,0.01 -0.0139,0.0194 -0.0187,0.0305 -0.005,0.0143 -0.01,0.0258 -0.005,0.0422 0.004,0.0131 0.0104,0.0259 0.0197,0.036 0.014,0.0151 0.031,0.018 0.0496,0.019 0.004,1.9e-4 0.007,-5.3e-4 0.0105,-0.001 0.003,-5.3e-4 0.002,-2.6e-4 0.001,-2.4e-4 -0.006,2.5e-4 -0.008,2.2e-4 -0.004,2.2e-4 8e-4,0 0.001,0 0.002,0 7.9e-4,0 0.001,0 0.002,0 0.004,0 0.009,0 0.0128,0 0.005,0 0.0105,0 0.0157,0 0.005,0 0.0101,0 0.0151,0 0.005,0 0.009,0 0.0137,0 0.004,0 0.009,0 0.013,1e-5 0.004,0 0.008,0 0.0124,1e-5 0.005,0 0.009,2e-5 0.0138,-6e-5 0.007,-1.5e-4 0.0142,-5.2e-4 0.0212,-0.002 0.001,-1.7e-4 0.002,-2.7e-4 0.003,-5.3e-4 0.003,-5.3e-4 5.3e-4,-1.1e-4 -2.7e-4,-7e-5 -0.004,2.4e-4 -0.008,2e-4 -0.003,2.1e-4 7.9e-4,0 0.002,0 0.002,0 0.002,0 0.004,8e-5 0.005,-1e-5 -5.2e-4,-1.1e-4 -0.001,-2.1e-4 -0.002,-5.3e-4 0.003,2.7e-4 0.009,0.004 0.0116,0.003 0.008,0.001 0.0152,0.002 0.0229,0.002 0.007,-7e-5 0.015,-2.7e-4 0.0224,-0.002 0.0121,-0.002 0.0232,-0.006 0.0335,-0.0133 0.003,-0.002 0.007,-0.003 0.008,-0.007 0.006,-0.0267 0.008,-0.0541 0.0117,-0.0812 -0.008,-0.008 -0.016,-0.0168 -0.0245,-0.0246 -0.002,-0.002 -0.0112,-0.006 -0.013,-0.006 -2.7e-4,-1.6e-4 0.001,5.3e-4 0.001,5.3e-4 -5.3e-4,-1.7e-4 -0.001,-5.3e-4 -0.001,-5.3e-4 -0.007,-0.003 -0.0141,-0.006 -0.0215,-0.009 0.009,0.005 0.018,0.009 0.0242,0.0193 0.0159,0.0278 0.0187,0.0517 8e-5,0.077 0.001,-0.001 0.003,-0.002 0.003,-0.004 5.3e-4,-0.002 -0.002,0.003 -0.003,0.004 -0.01,0.009 0.009,-0.008 -0.007,0.005 -0.002,5.3e-4 6e-5,0 0.005,-0.003 0.004,-0.002 0.007,-0.005 0.011,-0.007 0.001,-7.9e-4 0.003,-0.002 0.004,-0.002 0.009,-0.005 0.0184,-0.0112 0.0274,-0.0171 0.001,-0.001 0.004,-0.003 0.005,-0.003 -0.0107,0.003 -0.0133,0.003 -0.0235,0.002 -1.4e-4,-2e-5 0.001,1.2e-4 0.001,1.3e-4 0.0917,0.0183 0.11768,-0.11138 0.0259,-0.12972 z" />
      <path
         style="opacity:1;fill:#000000;stroke-width:2.3;stroke-dasharray:none"
         id="path1583"
         d="m 142.60525,145.41797 c 0,0.002 0,0.004 0,0.006 0,5.3e-4 -2e-5,0.002 0,0.002 2e-5,-8e-4 10e-6,-0.002 2e-5,-0.003 -2e-5,1.2e-4 -6e-5,5.3e-4 -5e-5,2.6e-4 5.3e-4,-0.006 0.002,-0.0135 0.005,-0.0192 0.001,-0.002 0.002,-0.003 0.003,-0.005 -8e-4,10e-4 10e-4,-0.002 7.9e-4,-0.001 -7.9e-4,0.001 -0.002,0.002 -0.002,0.003 -2.7e-4,2.6e-4 -0.001,0.001 -8e-4,0.001 5e-5,-9e-5 1.1e-4,-1.6e-4 1.7e-4,-2.4e-4 4e-5,-7e-5 9e-5,-1.4e-4 1.4e-4,-2e-4 10e-4,-0.001 0.002,-0.002 0.003,-0.003 5.3e-4,-7.9e-4 -0.001,10e-4 -0.002,0.002 -0.002,0.002 -0.004,0.004 -0.006,0.006 -0.003,0.004 -2.7e-4,2.6e-4 -0.005,0.007 -2.6e-4,5.3e-4 0.001,-0.002 8e-4,-0.001 -0.006,0.008 2e-5,9e-5 5e-5,1e-5 5.3e-4,-0.001 -0.002,0.002 -0.002,0.003 0.007,-0.01 0.0173,-0.0165 0.0285,-0.0207 0.004,-0.002 0.007,-0.002 0.011,-0.003 2.7e-4,-2.6e-4 0.007,-5.3e-4 0.003,-5.3e-4 -0.002,-1e-5 -0.004,-2e-5 -0.006,-2e-5 -0.006,-1.3e-4 -0.0117,2.6e-4 -0.0174,0.001 -0.002,2.7e-4 0.002,-1.9e-4 0.002,-2.2e-4 0.007,-2.7e-4 0.0125,5.3e-4 0.019,0.003 -0.004,-0.002 -0.006,-0.002 -0.0102,-0.003 -0.006,-0.002 -8e-4,-2.6e-4 -0.007,-0.002 -2.7e-4,-1e-4 0.001,2.6e-4 0.001,2.5e-4 -5.2e-4,-2e-4 -0.002,-7.9e-4 -0.002,-5.3e-4 7.9e-4,2.6e-4 0.002,5.3e-4 0.002,7.9e-4 5.3e-4,1.2e-4 -8e-4,-2.6e-4 -0.001,-5.3e-4 -0.001,-2.6e-4 -0.002,-7.9e-4 -0.003,-0.001 -5.3e-4,-2.2e-4 0.001,2.6e-4 0.002,5.3e-4 0.001,5.2e-4 0.003,10e-4 0.004,0.002 5.2e-4,1.7e-4 -0.002,-7.9e-4 -0.001,-5.3e-4 5.3e-4,2.7e-4 0.001,5.3e-4 0.002,8e-4 -0.0824,-0.0442 -0.14495,0.0724 -0.0625,0.11659 v 0 c 0.005,0.003 0.01,0.005 0.015,0.007 2.7e-4,1.4e-4 -7.9e-4,-2.6e-4 -0.001,-5.2e-4 0.004,0.001 0.007,0.002 0.0111,0.004 2.7e-4,8e-5 -5.2e-4,-1.1e-4 -7.9e-4,-2.7e-4 0.004,0.001 0.005,0.002 0.008,0.003 0.0103,0.003 0.0198,0.005 0.0308,0.005 0.005,-2.6e-4 0.01,-8e-4 0.0145,-0.002 -0.004,5.3e-4 9e-5,2e-5 -0.009,7.9e-4 -2.7e-4,3e-5 7.9e-4,0 0.001,0 0.001,0 0.002,0 0.003,0 0.002,1e-5 0.004,2e-5 0.006,3e-5 0.005,2e-5 0.01,-4e-5 0.0148,-7.9e-4 0.006,-0.001 0.009,-0.001 0.0145,-0.003 0.0137,-0.005 0.0252,-0.0128 0.0341,-0.0243 -2.6e-4,5.3e-4 -0.001,0.002 -0.001,10e-4 0.001,-0.002 0.002,-0.003 0.004,-0.005 -2.7e-4,5.3e-4 -0.001,0.002 -0.001,0.001 0.008,-0.0112 -10e-4,0.001 7.9e-4,-0.001 -5.3e-4,5.2e-4 -0.001,0.001 -0.002,0.002 -5.3e-4,5.3e-4 0.001,-8e-4 0.001,-0.002 6e-5,-1e-4 -2.7e-4,2.6e-4 -2.6e-4,2.4e-4 0.006,-0.006 0.003,-0.003 0.007,-0.007 0.004,-0.005 0.004,-0.006 0.008,-0.0103 0.002,-0.002 0.003,-0.005 0.005,-0.007 0.006,-0.0108 0.01,-0.0234 0.0106,-0.0358 1.9e-4,-0.004 2.6e-4,-0.009 2.6e-4,-0.0134 0,-0.0935 -0.13229,-0.0935 -0.13229,0 z" />
    </g>
  </g>
</svg>
